<svg version="1.1" id="Layer_1" xmlns="http://www.w3.org/2000/svg" xmlns:xlink="http://www.w3.org/1999/xlink" x="0px" y="0px"
	 width="100%" viewBox="0 0 1280 695" enable-background="new 0 0 1280 695" xml:space="preserve">
<path fill="#FEFFFE" opacity="1.000000" stroke="none" 
	d="
M920.000000,696.000000 
	C613.372070,696.000000 307.244110,696.000000 1.058086,696.000000 
	C1.058086,464.401367 1.058086,232.802719 1.058086,1.102039 
	C427.544647,1.102039 854.089355,1.102039 1280.817017,1.102039 
	C1280.817017,232.666550 1280.817017,464.333252 1280.817017,696.000000 
	C1160.802612,696.000000 1040.651367,696.000000 920.000000,696.000000 
M946.115051,395.337463 
	C947.898743,397.813080 948.920410,401.326965 953.101440,400.582001 
	C959.289673,399.479462 957.211243,394.008545 958.174805,390.293579 
	C960.292480,390.293579 962.078735,390.293579 964.337708,390.293579 
	C964.498596,392.575104 964.787170,394.683258 964.773743,396.789520 
	C964.659973,414.616241 964.600403,432.444580 964.274658,450.267914 
	C964.171631,455.902405 964.575256,462.039490 962.529907,467.039703 
	C958.597351,476.653412 962.121765,485.776733 962.275574,495.105469 
	C962.501953,508.842407 968.137573,522.216187 964.959106,536.197021 
	C964.610962,537.728394 965.492371,539.503784 965.331665,541.119080 
	C964.429260,550.191162 970.824707,559.422607 963.784485,568.585449 
	C961.311890,571.803528 959.380798,574.140747 955.452332,574.366516 
	C952.796875,574.519043 950.116821,574.234497 947.459717,574.373291 
	C941.945984,574.661499 936.076538,580.886353 936.021606,586.347534 
	C935.969604,591.517395 937.232849,592.900757 942.394409,592.910767 
	C961.390076,592.947754 980.385864,592.952881 999.381470,592.913208 
	C1005.090271,592.901306 1005.868103,592.067322 1005.875916,586.082764 
	C1005.889526,575.614136 1004.009399,565.279175 1005.558044,554.626465 
	C1006.497803,548.161865 1003.102478,541.175476 1003.295593,534.470764 
	C1003.673340,521.352966 1004.936707,508.240265 1006.325195,495.177673 
	C1007.728699,481.973907 1009.658691,468.823730 1011.518494,455.672760 
	C1011.930420,452.759827 1012.386414,449.544800 1013.899719,447.149689 
	C1020.156006,437.247559 1021.801147,426.467987 1021.210876,415.063263 
	C1021.108826,413.092072 1021.757141,411.082031 1022.058899,409.089935 
	C1022.682251,408.934570 1023.305542,408.779205 1023.928894,408.623840 
	C1025.091431,410.744843 1026.712769,412.738342 1027.343262,415.007172 
	C1032.059814,431.980652 1036.766357,448.961548 1041.088501,466.038208 
	C1043.444580,475.346924 1044.724487,484.928558 1047.093872,494.233215 
	C1048.770142,500.815918 1051.808105,507.070160 1048.256226,513.956360 
	C1047.635010,515.160645 1047.941895,516.919373 1048.040649,518.407349 
	C1048.940430,531.966614 1049.866211,545.524414 1050.867188,559.076538 
	C1050.948242,560.174316 1051.330322,561.763245 1052.102539,562.211914 
	C1056.489136,564.760498 1055.385864,568.569275 1054.798584,572.333374 
	C1053.979736,577.579956 1053.144897,582.824707 1052.405396,588.082703 
	C1051.941406,591.381836 1053.225220,593.010498 1056.825317,592.962952 
	C1066.821289,592.830872 1076.820923,592.837219 1086.817261,592.954956 
	C1090.309814,592.996094 1092.060913,591.690552 1092.301025,588.122070 
	C1092.757568,581.333923 1091.957275,574.820435 1088.506836,568.838013 
	C1086.795654,565.871155 1085.397583,563.082397 1087.723389,559.661072 
	C1088.594727,558.379150 1088.731445,556.484863 1088.877563,554.840881 
	C1090.010620,542.093567 1091.762451,529.350647 1091.971558,516.584229 
	C1092.254761,499.285706 1090.402222,481.922882 1091.224731,464.671539 
	C1091.903076,450.442719 1092.239746,436.489838 1089.387695,422.465454 
	C1088.241089,416.828491 1088.415405,410.922913 1087.988403,405.139618 
	C1088.411011,404.912781 1088.833618,404.685974 1089.256226,404.459167 
	C1092.377441,409.527283 1095.668823,407.776764 1099.142456,405.449310 
	C1106.779663,400.332062 1109.334106,392.104584 1112.002441,384.112061 
	C1115.144165,374.701721 1110.530396,363.791046 1117.362305,354.987885 
	C1117.544189,354.753540 1117.542969,354.346832 1117.557617,354.017426 
	C1118.041382,343.142548 1119.131836,332.251831 1118.859131,321.395447 
	C1118.362549,301.640533 1117.436157,281.877106 1115.940063,262.174072 
	C1115.087402,250.944672 1113.109741,239.759018 1110.974731,228.681595 
	C1109.216919,219.560089 1105.832397,210.732712 1104.341919,201.583847 
	C1102.430298,189.849976 1096.274170,182.427582 1085.939819,176.777222 
	C1076.643066,171.694168 1065.958740,168.102448 1059.758057,158.390182 
	C1059.267334,157.621475 1058.166504,157.218094 1057.310425,156.710632 
	C1052.959717,154.131699 1052.570923,148.773773 1056.389160,145.259705 
	C1057.826172,143.937119 1059.073486,142.389938 1060.297363,140.857361 
	C1064.669922,135.381516 1062.419312,129.195068 1062.868286,123.119049 
	C1063.816284,110.290634 1060.182007,100.275650 1050.810181,92.064949 
	C1047.776245,89.406975 1044.529907,86.412834 1040.844116,85.190308 
	C1031.222778,81.998993 1011.933228,91.235497 1007.673035,100.568130 
	C1006.725098,102.644753 1006.201355,105.015305 1005.976013,107.299240 
	C1005.584412,111.268234 1005.605652,115.276672 1005.394897,119.265457 
	C1005.316528,120.748123 1005.633789,122.914871 1004.809265,123.582855 
	C1000.731140,126.886620 1002.655762,130.536926 1003.924622,134.007904 
	C1005.330811,137.854446 1007.227417,141.520477 1008.878784,145.278992 
	C1009.912354,147.631271 1010.887817,150.009048 1011.694092,151.914032 
	C1008.325073,153.701233 1004.749817,154.506882 1003.003296,156.741653 
	C998.819275,162.095459 993.076538,164.332855 987.205017,166.715485 
	C981.343018,169.094223 975.398010,171.366745 969.832031,174.329498 
	C967.490479,175.575867 964.984436,178.200851 964.337219,180.667282 
	C960.282166,196.120026 956.158630,211.595337 953.156006,227.273499 
	C949.310364,247.353424 946.308472,267.603455 943.328979,287.837036 
	C941.878540,297.686920 941.113892,307.653351 940.461914,317.594757 
	C940.289551,320.222382 942.280945,322.960052 942.249451,325.635101 
	C942.165894,332.728760 944.608704,338.982971 946.575073,345.625732 
	C948.103516,350.788971 944.945740,357.392548 943.685486,363.316528 
	C941.415161,373.987518 939.390015,384.603485 946.115051,395.337463 
M262.449371,520.129761 
	C263.196136,508.672333 264.132172,497.222473 264.588257,485.753479 
	C264.750519,481.673401 263.093597,477.498169 263.395782,473.450653 
	C264.396942,460.040955 265.573547,446.624603 267.346039,433.299011 
	C268.591187,423.937958 270.871765,414.711151 272.819275,405.451599 
	C273.049438,404.357391 274.098419,403.435425 274.767853,402.433594 
	C275.329926,402.380615 275.891998,402.327606 276.454071,402.274628 
	C279.718231,411.249664 283.849548,420.022217 286.005890,429.255951 
	C288.221741,438.744690 287.712830,448.861938 289.843170,458.380310 
	C292.474457,470.136688 293.874298,481.712616 293.065674,493.799103 
	C291.888794,511.389832 291.491119,529.044312 291.248810,546.678284 
	C291.181763,551.556152 292.168030,556.708618 293.869537,561.289978 
	C296.446960,568.229797 297.421967,574.787170 294.174286,581.703674 
	C292.028839,586.272827 292.795105,587.376892 297.764648,587.403381 
	C306.263153,587.448669 314.762207,587.444031 323.260742,587.399780 
	C330.400177,587.362610 331.326477,585.787476 327.833405,579.428162 
	C324.670715,573.670349 322.845825,567.956360 325.676178,561.360291 
	C326.742310,558.875671 326.598358,555.813232 326.741180,553.000732 
	C327.508636,537.885742 327.609375,522.711365 329.032257,507.660736 
	C331.635437,480.126465 327.941803,453.097473 323.124237,426.217957 
	C320.558472,411.902405 320.792603,397.925049 324.854645,384.260895 
	C327.190125,376.404755 327.295685,368.882141 326.034973,361.161926 
	C325.351898,356.979004 325.869476,353.842072 329.211945,350.902252 
	C330.631042,349.654022 331.779572,346.817932 331.421478,345.029846 
	C328.273590,329.310852 322.622559,313.762451 329.479889,297.631500 
	C329.794006,296.892548 329.613983,295.957062 329.852753,295.170349 
	C331.524506,289.662323 333.355652,284.200134 334.908966,278.659668 
	C335.792450,275.508392 336.729645,272.248444 336.805908,269.017670 
	C337.040253,259.089508 336.752258,249.149780 336.923431,239.218964 
	C336.983063,235.758194 337.748962,232.304230 338.263733,228.857834 
	C339.138428,223.002029 340.139740,217.164352 340.949921,211.299988 
	C341.404327,208.010910 341.448730,204.664856 341.910797,201.377197 
	C342.987091,193.718552 342.334534,186.677765 337.415649,180.092484 
	C331.591644,172.295395 325.052124,165.586914 315.699219,162.400803 
	C299.797821,156.983932 302.674011,138.279968 309.829926,129.740463 
	C312.641327,126.385483 313.979462,121.513313 315.026764,117.103645 
	C315.437958,115.372520 313.164703,113.039398 312.222900,110.931732 
	C311.900421,110.210045 311.861542,109.344971 311.775848,108.536629 
	C310.585663,97.309013 307.161224,87.145493 298.641510,79.125992 
	C293.854095,74.619659 289.018860,70.242073 281.967255,73.308922 
	C277.224060,75.371819 271.456116,77.389656 268.734650,81.251465 
	C264.590973,87.131401 259.510071,93.200569 259.955078,101.459030 
	C260.266113,107.230972 259.602325,113.065910 260.075592,118.814957 
	C260.392303,122.662125 260.801697,127.614532 263.221527,129.896683 
	C266.312500,132.811768 267.917511,135.813049 268.583466,139.548248 
	C269.662201,145.598587 270.673340,151.690155 271.163147,157.808334 
	C271.676086,164.215607 269.047882,169.152451 262.802795,171.723572 
	C259.109161,173.244247 255.218643,174.445099 251.806320,176.452255 
	C247.162415,179.183823 242.267334,181.953598 238.611832,185.786499 
	C233.673294,190.964706 227.853027,195.702179 225.752136,203.177505 
	C225.328262,204.685730 223.294693,205.737885 222.012299,207.009445 
	C220.487930,208.520950 218.742813,209.874451 217.494492,211.588531 
	C212.101685,218.993484 206.801636,226.468033 201.599533,234.008118 
	C200.500961,235.600372 199.751312,237.514542 199.200485,239.386215 
	C198.129669,243.024689 197.749863,246.922913 196.287170,250.376083 
	C194.232559,255.226624 194.971268,258.910980 198.813400,262.462891 
	C204.347595,267.579041 210.541626,271.019867 218.075684,272.269562 
	C225.645111,273.525146 232.414169,281.054382 231.347946,286.618713 
	C229.814209,294.622803 227.739380,302.543213 226.607590,310.599396 
	C225.129700,321.119141 224.278259,331.730530 223.344788,342.319031 
	C223.212250,343.822357 223.637924,346.117645 224.660492,346.846497 
	C228.335403,349.465790 227.331543,353.006866 227.152100,356.392334 
	C227.011612,359.043182 226.306534,361.675842 226.288620,364.319580 
	C226.145218,385.482941 225.742203,406.655396 226.232986,427.806213 
	C226.403076,435.136566 228.463654,442.526337 230.447830,449.670380 
	C231.537170,453.592560 231.650558,456.710052 229.122116,459.915314 
	C227.370865,462.135376 225.349976,464.331055 224.328064,466.888672 
	C223.149460,469.838440 222.137299,473.259857 222.465775,476.325043 
	C223.226379,483.422241 224.334824,490.566345 226.219894,497.439728 
	C229.288773,508.629578 228.251343,519.336243 225.075668,530.311340 
	C223.752655,534.883606 225.039871,540.148621 224.272079,544.960022 
	C223.330078,550.863037 222.728455,557.383972 219.743225,562.271912 
	C214.603394,570.687561 205.743286,574.019897 195.940887,574.992432 
	C193.729858,575.211792 191.706360,577.321289 189.596527,578.560730 
	C190.873993,580.734131 191.647552,583.829102 193.545853,584.867004 
	C196.466446,586.463806 200.136917,587.186157 203.528442,587.325562 
	C211.680527,587.660828 219.869324,587.721252 228.014572,587.315674 
	C231.508820,587.141724 234.921524,585.494995 238.392090,584.597900 
	C239.729706,584.252136 241.996994,583.500854 242.359009,584.002869 
	C245.932495,588.957947 251.060959,587.015991 255.675034,587.405151 
	C259.968811,587.767273 261.947693,585.971436 261.574127,581.629944 
	C261.417328,579.807556 261.734528,577.860779 261.204895,576.168091 
	C258.594299,567.824890 257.875153,559.754211 259.805725,550.856567 
	C261.903351,541.189026 261.571259,530.994385 262.449371,520.129761 
M585.969543,299.310059 
	C584.950317,276.897644 583.972290,254.483215 582.888428,232.073914 
	C582.535034,224.767593 582.202759,217.439133 581.335449,210.183594 
	C579.927612,198.405472 575.958923,188.311203 563.202454,184.118073 
	C561.590759,183.588318 560.104004,180.257111 559.962036,178.130219 
	C559.530090,171.659729 559.513000,165.130264 559.825623,158.647461 
	C560.645813,141.644165 555.490356,126.132988 548.282959,111.141785 
	C544.489563,103.251709 538.898865,97.440430 529.181824,99.462433 
	C521.784729,101.001678 513.238708,100.481194 508.329163,107.908089 
	C504.303436,113.997986 500.181671,120.159691 497.221954,126.789345 
	C491.904480,138.700333 491.614532,151.677368 491.216736,164.465286 
	C491.013947,170.984467 488.388977,175.825195 483.792542,180.153015 
	C479.718384,183.989120 473.932861,185.680038 471.724823,192.066467 
	C470.397034,195.906860 465.783203,198.528076 462.993164,201.977829 
	C461.380127,203.972229 459.798218,206.401733 459.343170,208.847672 
	C457.832123,216.969574 456.487549,225.155045 455.722443,233.376007 
	C454.346497,248.160126 452.441895,263.007751 452.739960,277.788879 
	C452.896027,285.529541 453.356354,293.243408 452.477631,300.932648 
	C449.872986,323.723755 447.080841,346.361237 451.962494,369.362305 
	C454.147644,379.658264 457.308807,388.225616 466.072418,394.547638 
	C468.475861,396.281433 470.265717,399.852600 470.894196,402.880157 
	C473.017914,413.110931 474.703827,423.446777 476.153900,433.798920 
	C477.434143,442.938507 480.047821,452.074860 477.188049,461.421753 
	C476.828888,462.595612 477.317780,464.040771 477.461792,465.354950 
	C478.616852,475.895050 479.636475,486.453033 481.007507,496.965118 
	C481.709412,502.346954 483.136749,507.630402 484.059174,512.988770 
	C484.533813,515.746155 485.399200,518.785828 484.699921,521.313965 
	C483.650604,525.107605 483.838348,528.167297 485.479248,531.802429 
	C488.105774,537.621277 489.910461,543.816162 491.950287,549.889832 
	C492.306763,550.951233 492.253754,552.210938 492.148041,553.356750 
	C491.553375,559.803345 490.557892,566.230835 490.316193,572.687988 
	C489.928680,583.040344 491.789581,586.891541 498.091064,587.418030 
	C503.048981,587.832214 508.106262,587.851990 513.054382,587.373779 
	C518.479187,586.849487 521.332153,582.736206 520.036316,577.471069 
	C518.529785,571.349670 516.285400,565.411499 514.731140,559.299744 
	C513.941040,556.192871 513.362244,552.808167 513.735107,549.673645 
	C514.673523,541.784180 516.825073,533.998291 513.838867,526.071228 
	C513.150208,524.243103 512.924805,522.156494 512.884827,520.180725 
	C512.433472,497.907074 511.776672,475.632019 511.759125,453.356934 
	C511.746216,436.895020 512.648682,420.433716 513.032166,403.969574 
	C513.198914,396.808044 512.971741,389.636871 513.166870,382.476715 
	C513.230957,380.124298 514.061096,377.792725 514.540955,375.451630 
	C515.136169,375.467865 515.731323,375.484070 516.326538,375.500305 
	C517.317505,377.892792 518.421326,380.245636 519.279724,382.684753 
	C522.815979,392.732178 526.217346,402.827240 529.780457,412.864960 
	C535.954407,430.257874 542.660034,447.477325 548.297180,465.040863 
	C553.111206,480.039612 556.831665,495.394653 560.856201,510.639526 
	C563.346924,520.074524 565.778137,529.542419 567.706543,539.102295 
	C568.916077,545.098755 572.270752,550.593506 571.138000,557.208740 
	C570.160339,562.917725 570.007874,568.814392 569.985046,574.630066 
	C569.944519,584.958191 572.719421,587.609924 582.775208,587.624634 
	C584.774597,587.627563 586.779846,587.494202 588.771973,587.607117 
	C591.625610,587.768982 593.469482,586.431641 593.541748,583.715942 
	C593.717041,577.132874 594.815674,570.217896 593.242981,564.020081 
	C590.122925,551.724670 591.674927,539.685791 592.618958,527.493652 
	C592.886353,524.040588 592.916260,520.500366 592.467407,517.077087 
	C591.820862,512.145813 590.682739,507.275482 589.674377,502.395660 
	C586.687134,487.940247 586.129700,472.979156 580.109436,459.139526 
	C578.279236,454.932159 577.349426,450.189240 576.799377,445.596771 
	C575.320190,433.247101 574.745728,420.857788 571.472412,408.670929 
	C569.260620,400.436371 571.396667,392.579224 577.990540,385.839325 
	C583.651794,380.052795 584.937195,372.236450 584.063538,364.008514 
	C583.570984,359.369781 584.244324,354.589630 584.588562,349.887543 
	C584.745056,347.749603 585.715027,345.650391 585.739380,343.527008 
	C585.904846,329.107178 585.916504,314.685577 585.969543,299.310059 
M802.964355,135.798416 
	C804.078125,127.432495 803.298462,119.488068 797.619751,112.713524 
	C795.174438,109.796410 792.597229,106.989906 790.079956,104.133141 
	C789.208618,103.223640 787.373718,103.362152 786.087891,102.588280 
	C777.437134,97.381531 768.865906,98.912369 760.190552,102.423042 
	C738.596069,111.161774 731.267944,143.256042 747.038391,160.165009 
	C752.050842,165.539337 752.042358,165.532028 747.500427,170.783768 
	C746.961670,171.406693 746.703308,172.309692 746.098083,172.831131 
	C743.396484,175.158615 740.817261,177.714218 737.823303,179.598907 
	C731.099060,183.831848 723.525879,186.947510 717.450134,191.924225 
	C708.731018,199.066147 704.771423,208.705032 707.269043,220.362411 
	C707.803711,222.857849 707.170715,225.579941 707.372803,228.174484 
	C708.028687,236.593826 708.641052,245.024918 709.679443,253.400772 
	C709.971924,255.759613 711.722534,257.921417 712.709839,260.214325 
	C714.090637,263.421051 715.238953,266.735168 716.751099,269.876068 
	C718.429993,273.363342 720.009949,277.011200 722.338013,280.048767 
	C726.755554,285.812531 727.102173,288.957031 723.264648,295.052460 
	C722.236938,296.684906 721.180786,298.762085 721.301758,300.556580 
	C721.537170,304.045746 720.357666,306.428955 718.048950,308.958160 
	C713.968567,313.428284 714.520752,319.946106 718.529907,324.579163 
	C719.361572,325.540253 719.711304,327.357056 719.535461,328.680084 
	C718.396729,337.246796 717.169556,345.805878 715.743103,354.329224 
	C713.961243,364.976410 715.002075,374.970306 719.789001,384.936035 
	C723.718750,393.117157 726.087891,402.051483 729.100342,410.668915 
	C735.976074,430.337616 736.737244,450.531067 733.330078,470.842896 
	C731.538086,481.525970 730.977356,492.211761 733.184448,502.614929 
	C737.267456,521.860596 741.532166,541.108459 748.634705,559.588806 
	C750.082947,563.357056 750.758179,567.900330 750.158936,571.838135 
	C749.600647,575.507141 746.570374,578.732239 745.195862,582.367371 
	C744.192200,585.021790 743.652954,588.060364 743.871521,590.852112 
	C743.945129,591.792786 746.990601,593.222473 748.667664,593.208435 
	C776.804565,592.972717 804.940796,592.591736 833.073547,592.056458 
	C835.082336,592.018250 838.660767,590.666016 838.740234,589.697693 
	C838.932495,587.353394 837.967468,584.533997 836.559387,582.552490 
	C835.315247,580.801697 832.937012,579.738159 830.894531,578.694031 
	C822.207703,574.252808 813.253479,570.287354 804.827148,565.405457 
	C801.033752,563.207764 798.050842,559.135559 799.207886,554.120483 
	C801.036926,546.192627 803.371521,538.382324 805.443298,530.509399 
	C810.076782,512.901611 819.202515,496.762543 822.378479,478.678955 
	C822.435303,478.355530 822.488159,477.934570 822.705139,477.750336 
	C827.899109,473.342438 826.325745,466.603424 827.220215,461.270172 
	C829.593323,447.120514 831.748230,432.704224 829.356201,418.181946 
	C828.574158,413.434296 827.952026,408.608124 827.870056,403.807404 
	C827.659790,391.481628 827.726257,379.149506 827.816467,366.820862 
	C827.865479,360.123749 827.939087,353.526764 824.221924,347.485107 
	C823.344421,346.058716 823.687561,343.926025 823.251221,342.172516 
	C822.670349,339.838440 822.239868,337.357086 821.102844,335.292603 
	C818.099976,329.840607 818.995239,324.934906 824.163574,321.509705 
	C826.671753,319.847504 827.968079,317.962372 826.791748,314.834534 
	C824.998413,310.065765 823.550781,305.161591 821.630066,300.447845 
	C820.094543,296.679291 820.323853,293.513794 823.892029,291.299591 
	C828.637939,288.354492 833.311584,285.061981 838.460388,283.062469 
	C843.534180,281.092102 845.692139,277.927917 846.599792,272.878479 
	C850.010193,253.906830 846.000305,235.970413 839.508362,218.312302 
	C837.387329,212.542969 835.244873,206.767776 833.487610,200.883179 
	C832.290283,196.873505 830.148438,194.120850 826.183472,192.739380 
	C824.953186,192.310715 823.820435,191.590942 822.662109,190.968750 
	C817.161255,188.013870 811.621826,185.126282 806.196594,182.038101 
	C804.437744,181.036942 801.906250,179.724167 801.580750,178.166748 
	C800.265198,171.871704 796.234375,168.949844 790.524597,167.319061 
	C787.274170,166.390686 787.895996,164.542007 789.804077,162.582169 
	C796.873413,155.321014 801.616455,146.879745 802.964355,135.798416 
z"/>
<path fill="#06A9D0" opacity="1.000000" stroke="none" 
	d="
M945.953308,395.006592 
	C939.390015,384.603485 941.415161,373.987518 943.685486,363.316528 
	C944.945740,357.392548 948.103516,350.788971 946.575073,345.625732 
	C944.608704,338.982971 942.165894,332.728760 942.249451,325.635101 
	C942.280945,322.960052 940.289551,320.222382 940.461914,317.594757 
	C941.113892,307.653351 941.878540,297.686920 943.328979,287.837036 
	C946.308472,267.603455 949.310364,247.353424 953.156006,227.273499 
	C956.158630,211.595337 960.282166,196.120026 964.337219,180.667282 
	C964.984436,178.200851 967.490479,175.575867 969.832031,174.329498 
	C975.398010,171.366745 981.343018,169.094223 987.205017,166.715485 
	C993.076538,164.332855 998.819275,162.095459 1003.003296,156.741653 
	C1004.749817,154.506882 1008.325073,153.701233 1011.694092,151.914032 
	C1010.887817,150.009048 1009.912354,147.631271 1008.878784,145.278992 
	C1007.227417,141.520477 1005.330811,137.854446 1003.924622,134.007904 
	C1002.655762,130.536926 1000.731140,126.886620 1004.809265,123.582855 
	C1005.633789,122.914871 1005.316528,120.748123 1005.394897,119.265457 
	C1005.605652,115.276672 1005.584412,111.268234 1005.976013,107.299240 
	C1006.201355,105.015305 1006.725098,102.644753 1007.673035,100.568130 
	C1011.933228,91.235497 1031.222778,81.998993 1040.844116,85.190308 
	C1044.529907,86.412834 1047.776245,89.406975 1050.810181,92.064949 
	C1060.182007,100.275650 1063.816284,110.290634 1062.868286,123.119049 
	C1062.419312,129.195068 1064.669922,135.381516 1060.297363,140.857361 
	C1059.073486,142.389938 1057.826172,143.937119 1056.389160,145.259705 
	C1052.570923,148.773773 1052.959717,154.131699 1057.310425,156.710632 
	C1058.166504,157.218094 1059.267334,157.621475 1059.758057,158.390182 
	C1065.958740,168.102448 1076.643066,171.694168 1085.939819,176.777222 
	C1096.274170,182.427582 1102.430298,189.849976 1104.341919,201.583847 
	C1105.832397,210.732712 1109.216919,219.560089 1110.974731,228.681595 
	C1113.109741,239.759018 1115.087402,250.944672 1115.940063,262.174072 
	C1117.436157,281.877106 1118.362549,301.640533 1118.859131,321.395447 
	C1119.131836,332.251831 1118.041382,343.142548 1117.557617,354.017426 
	C1117.542969,354.346832 1117.544189,354.753540 1117.362305,354.987885 
	C1110.530396,363.791046 1115.144165,374.701721 1112.002441,384.112061 
	C1109.334106,392.104584 1106.779663,400.332062 1099.142456,405.449310 
	C1095.668823,407.776764 1092.377441,409.527283 1089.256226,404.459167 
	C1088.833618,404.685974 1088.411011,404.912781 1087.988403,405.139618 
	C1088.415405,410.922913 1088.241089,416.828491 1089.387695,422.465454 
	C1092.239746,436.489838 1091.903076,450.442719 1091.224731,464.671539 
	C1090.402222,481.922882 1092.254761,499.285706 1091.971558,516.584229 
	C1091.762451,529.350647 1090.010620,542.093567 1088.877563,554.840881 
	C1088.731445,556.484863 1088.594727,558.379150 1087.723389,559.661072 
	C1085.397583,563.082397 1086.795654,565.871155 1088.506836,568.838013 
	C1091.957275,574.820435 1092.757568,581.333923 1092.301025,588.122070 
	C1092.060913,591.690552 1090.309814,592.996094 1086.817261,592.954956 
	C1076.820923,592.837219 1066.821289,592.830872 1056.825317,592.962952 
	C1053.225220,593.010498 1051.941406,591.381836 1052.405396,588.082703 
	C1053.144897,582.824707 1053.979736,577.579956 1054.798584,572.333374 
	C1055.385864,568.569275 1056.489136,564.760498 1052.102539,562.211914 
	C1051.330322,561.763245 1050.948242,560.174316 1050.867188,559.076538 
	C1049.866211,545.524414 1048.940430,531.966614 1048.040649,518.407349 
	C1047.941895,516.919373 1047.635010,515.160645 1048.256226,513.956360 
	C1051.808105,507.070160 1048.770142,500.815918 1047.093872,494.233215 
	C1044.724487,484.928558 1043.444580,475.346924 1041.088501,466.038208 
	C1036.766357,448.961548 1032.059814,431.980652 1027.343262,415.007172 
	C1026.712769,412.738342 1025.091431,410.744843 1023.928894,408.623840 
	C1023.305542,408.779205 1022.682251,408.934570 1022.058899,409.089935 
	C1021.757141,411.082031 1021.108826,413.092072 1021.210876,415.063263 
	C1021.801147,426.467987 1020.156006,437.247559 1013.899719,447.149689 
	C1012.386414,449.544800 1011.930420,452.759827 1011.518494,455.672760 
	C1009.658691,468.823730 1007.728699,481.973907 1006.325195,495.177673 
	C1004.936707,508.240265 1003.673340,521.352966 1003.295593,534.470764 
	C1003.102478,541.175476 1006.497803,548.161865 1005.558044,554.626465 
	C1004.009399,565.279175 1005.889526,575.614136 1005.875916,586.082764 
	C1005.868103,592.067322 1005.090271,592.901306 999.381470,592.913208 
	C980.385864,592.952881 961.390076,592.947754 942.394409,592.910767 
	C937.232849,592.900757 935.969604,591.517395 936.021606,586.347534 
	C936.076538,580.886353 941.945984,574.661499 947.459717,574.373291 
	C950.116821,574.234497 952.796875,574.519043 955.452332,574.366516 
	C959.380798,574.140747 961.311890,571.803528 963.784485,568.585449 
	C970.824707,559.422607 964.429260,550.191162 965.331665,541.119080 
	C965.492371,539.503784 964.610962,537.728394 964.959106,536.197021 
	C968.137573,522.216187 962.501953,508.842407 962.275574,495.105469 
	C962.121765,485.776733 958.597351,476.653412 962.529907,467.039703 
	C964.575256,462.039490 964.171631,455.902405 964.274658,450.267914 
	C964.600403,432.444580 964.659973,414.616241 964.773743,396.789520 
	C964.787170,394.683258 964.498596,392.575104 964.337708,390.293579 
	C962.078735,390.293579 960.292480,390.293579 958.174805,390.293579 
	C957.211243,394.008545 959.289673,399.479462 953.101440,400.582001 
	C948.920410,401.326965 947.898743,397.813080 945.953308,395.006592 
M1086.356079,356.495026 
	C1086.849976,362.826691 1087.343872,369.158356 1087.863525,375.819244 
	C1092.843140,361.404633 1098.196289,347.388153 1088.786255,333.157715 
	C1084.982544,335.040527 1084.080200,337.526215 1084.726074,341.175934 
	C1085.564087,345.910309 1085.836670,350.744720 1086.356079,356.495026 
M963.060730,377.959961 
	C963.519958,378.431793 964.353455,379.340210 964.384949,379.313171 
	C966.497375,377.502167 966.683350,370.801239 964.440613,368.396454 
	C963.944763,371.495850 963.490051,374.338074 963.060730,377.959961 
z"/>
<path fill="#E22418" opacity="1.000000" stroke="none" 
	d="
M262.373962,520.579651 
	C261.571259,530.994385 261.903351,541.189026 259.805725,550.856567 
	C257.875153,559.754211 258.594299,567.824890 261.204895,576.168091 
	C261.734528,577.860779 261.417328,579.807556 261.574127,581.629944 
	C261.947693,585.971436 259.968811,587.767273 255.675034,587.405151 
	C251.060959,587.015991 245.932495,588.957947 242.359009,584.002869 
	C241.996994,583.500854 239.729706,584.252136 238.392090,584.597900 
	C234.921524,585.494995 231.508820,587.141724 228.014572,587.315674 
	C219.869324,587.721252 211.680527,587.660828 203.528442,587.325562 
	C200.136917,587.186157 196.466446,586.463806 193.545853,584.867004 
	C191.647552,583.829102 190.873993,580.734131 189.596527,578.560730 
	C191.706360,577.321289 193.729858,575.211792 195.940887,574.992432 
	C205.743286,574.019897 214.603394,570.687561 219.743225,562.271912 
	C222.728455,557.383972 223.330078,550.863037 224.272079,544.960022 
	C225.039871,540.148621 223.752655,534.883606 225.075668,530.311340 
	C228.251343,519.336243 229.288773,508.629578 226.219894,497.439728 
	C224.334824,490.566345 223.226379,483.422241 222.465775,476.325043 
	C222.137299,473.259857 223.149460,469.838440 224.328064,466.888672 
	C225.349976,464.331055 227.370865,462.135376 229.122116,459.915314 
	C231.650558,456.710052 231.537170,453.592560 230.447830,449.670380 
	C228.463654,442.526337 226.403076,435.136566 226.232986,427.806213 
	C225.742203,406.655396 226.145218,385.482941 226.288620,364.319580 
	C226.306534,361.675842 227.011612,359.043182 227.152100,356.392334 
	C227.331543,353.006866 228.335403,349.465790 224.660492,346.846497 
	C223.637924,346.117645 223.212250,343.822357 223.344788,342.319031 
	C224.278259,331.730530 225.129700,321.119141 226.607590,310.599396 
	C227.739380,302.543213 229.814209,294.622803 231.347946,286.618713 
	C232.414169,281.054382 225.645111,273.525146 218.075684,272.269562 
	C210.541626,271.019867 204.347595,267.579041 198.813400,262.462891 
	C194.971268,258.910980 194.232559,255.226624 196.287170,250.376083 
	C197.749863,246.922913 198.129669,243.024689 199.200485,239.386215 
	C199.751312,237.514542 200.500961,235.600372 201.599533,234.008118 
	C206.801636,226.468033 212.101685,218.993484 217.494492,211.588531 
	C218.742813,209.874451 220.487930,208.520950 222.012299,207.009445 
	C223.294693,205.737885 225.328262,204.685730 225.752136,203.177505 
	C227.853027,195.702179 233.673294,190.964706 238.611832,185.786499 
	C242.267334,181.953598 247.162415,179.183823 251.806320,176.452255 
	C255.218643,174.445099 259.109161,173.244247 262.802795,171.723572 
	C269.047882,169.152451 271.676086,164.215607 271.163147,157.808334 
	C270.673340,151.690155 269.662201,145.598587 268.583466,139.548248 
	C267.917511,135.813049 266.312500,132.811768 263.221527,129.896683 
	C260.801697,127.614532 260.392303,122.662125 260.075592,118.814957 
	C259.602325,113.065910 260.266113,107.230972 259.955078,101.459030 
	C259.510071,93.200569 264.590973,87.131401 268.734650,81.251465 
	C271.456116,77.389656 277.224060,75.371819 281.967255,73.308922 
	C289.018860,70.242073 293.854095,74.619659 298.641510,79.125992 
	C307.161224,87.145493 310.585663,97.309013 311.775848,108.536629 
	C311.861542,109.344971 311.900421,110.210045 312.222900,110.931732 
	C313.164703,113.039398 315.437958,115.372520 315.026764,117.103645 
	C313.979462,121.513313 312.641327,126.385483 309.829926,129.740463 
	C302.674011,138.279968 299.797821,156.983932 315.699219,162.400803 
	C325.052124,165.586914 331.591644,172.295395 337.415649,180.092484 
	C342.334534,186.677765 342.987091,193.718552 341.910797,201.377197 
	C341.448730,204.664856 341.404327,208.010910 340.949921,211.299988 
	C340.139740,217.164352 339.138428,223.002029 338.263733,228.857834 
	C337.748962,232.304230 336.983063,235.758194 336.923431,239.218964 
	C336.752258,249.149780 337.040253,259.089508 336.805908,269.017670 
	C336.729645,272.248444 335.792450,275.508392 334.908966,278.659668 
	C333.355652,284.200134 331.524506,289.662323 329.852753,295.170349 
	C329.613983,295.957062 329.794006,296.892548 329.479889,297.631500 
	C322.622559,313.762451 328.273590,329.310852 331.421478,345.029846 
	C331.779572,346.817932 330.631042,349.654022 329.211945,350.902252 
	C325.869476,353.842072 325.351898,356.979004 326.034973,361.161926 
	C327.295685,368.882141 327.190125,376.404755 324.854645,384.260895 
	C320.792603,397.925049 320.558472,411.902405 323.124237,426.217957 
	C327.941803,453.097473 331.635437,480.126465 329.032257,507.660736 
	C327.609375,522.711365 327.508636,537.885742 326.741180,553.000732 
	C326.598358,555.813232 326.742310,558.875671 325.676178,561.360291 
	C322.845825,567.956360 324.670715,573.670349 327.833405,579.428162 
	C331.326477,585.787476 330.400177,587.362610 323.260742,587.399780 
	C314.762207,587.444031 306.263153,587.448669 297.764648,587.403381 
	C292.795105,587.376892 292.028839,586.272827 294.174286,581.703674 
	C297.421967,574.787170 296.446960,568.229797 293.869537,561.289978 
	C292.168030,556.708618 291.181763,551.556152 291.248810,546.678284 
	C291.491119,529.044312 291.888794,511.389832 293.065674,493.799103 
	C293.874298,481.712616 292.474457,470.136688 289.843170,458.380310 
	C287.712830,448.861938 288.221741,438.744690 286.005890,429.255951 
	C283.849548,420.022217 279.718231,411.249664 276.454071,402.274628 
	C275.891998,402.327606 275.329926,402.380615 274.767853,402.433594 
	C274.098419,403.435425 273.049438,404.357391 272.819275,405.451599 
	C270.871765,414.711151 268.591187,423.937958 267.346039,433.299011 
	C265.573547,446.624603 264.396942,460.040955 263.395782,473.450653 
	C263.093597,477.498169 264.750519,481.673401 264.588257,485.753479 
	C264.132172,497.222473 263.196136,508.672333 262.373962,520.579651 
z"/>
<path fill="#FABA06" opacity="1.000000" stroke="none" 
	d="
M585.973633,299.787292 
	C585.916504,314.685577 585.904846,329.107178 585.739380,343.527008 
	C585.715027,345.650391 584.745056,347.749603 584.588562,349.887543 
	C584.244324,354.589630 583.570984,359.369781 584.063538,364.008514 
	C584.937195,372.236450 583.651794,380.052795 577.990540,385.839325 
	C571.396667,392.579224 569.260620,400.436371 571.472412,408.670929 
	C574.745728,420.857788 575.320190,433.247101 576.799377,445.596771 
	C577.349426,450.189240 578.279236,454.932159 580.109436,459.139526 
	C586.129700,472.979156 586.687134,487.940247 589.674377,502.395660 
	C590.682739,507.275482 591.820862,512.145813 592.467407,517.077087 
	C592.916260,520.500366 592.886353,524.040588 592.618958,527.493652 
	C591.674927,539.685791 590.122925,551.724670 593.242981,564.020081 
	C594.815674,570.217896 593.717041,577.132874 593.541748,583.715942 
	C593.469482,586.431641 591.625610,587.768982 588.771973,587.607117 
	C586.779846,587.494202 584.774597,587.627563 582.775208,587.624634 
	C572.719421,587.609924 569.944519,584.958191 569.985046,574.630066 
	C570.007874,568.814392 570.160339,562.917725 571.138000,557.208740 
	C572.270752,550.593506 568.916077,545.098755 567.706543,539.102295 
	C565.778137,529.542419 563.346924,520.074524 560.856201,510.639526 
	C556.831665,495.394653 553.111206,480.039612 548.297180,465.040863 
	C542.660034,447.477325 535.954407,430.257874 529.780457,412.864960 
	C526.217346,402.827240 522.815979,392.732178 519.279724,382.684753 
	C518.421326,380.245636 517.317505,377.892792 516.326538,375.500305 
	C515.731323,375.484070 515.136169,375.467865 514.540955,375.451630 
	C514.061096,377.792725 513.230957,380.124298 513.166870,382.476715 
	C512.971741,389.636871 513.198914,396.808044 513.032166,403.969574 
	C512.648682,420.433716 511.746216,436.895020 511.759125,453.356934 
	C511.776672,475.632019 512.433472,497.907074 512.884827,520.180725 
	C512.924805,522.156494 513.150208,524.243103 513.838867,526.071228 
	C516.825073,533.998291 514.673523,541.784180 513.735107,549.673645 
	C513.362244,552.808167 513.941040,556.192871 514.731140,559.299744 
	C516.285400,565.411499 518.529785,571.349670 520.036316,577.471069 
	C521.332153,582.736206 518.479187,586.849487 513.054382,587.373779 
	C508.106262,587.851990 503.048981,587.832214 498.091064,587.418030 
	C491.789581,586.891541 489.928680,583.040344 490.316193,572.687988 
	C490.557892,566.230835 491.553375,559.803345 492.148041,553.356750 
	C492.253754,552.210938 492.306763,550.951233 491.950287,549.889832 
	C489.910461,543.816162 488.105774,537.621277 485.479248,531.802429 
	C483.838348,528.167297 483.650604,525.107605 484.699921,521.313965 
	C485.399200,518.785828 484.533813,515.746155 484.059174,512.988770 
	C483.136749,507.630402 481.709412,502.346954 481.007507,496.965118 
	C479.636475,486.453033 478.616852,475.895050 477.461792,465.354950 
	C477.317780,464.040771 476.828888,462.595612 477.188049,461.421753 
	C480.047821,452.074860 477.434143,442.938507 476.153900,433.798920 
	C474.703827,423.446777 473.017914,413.110931 470.894196,402.880157 
	C470.265717,399.852600 468.475861,396.281433 466.072418,394.547638 
	C457.308807,388.225616 454.147644,379.658264 451.962494,369.362305 
	C447.080841,346.361237 449.872986,323.723755 452.477631,300.932648 
	C453.356354,293.243408 452.896027,285.529541 452.739960,277.788879 
	C452.441895,263.007751 454.346497,248.160126 455.722443,233.376007 
	C456.487549,225.155045 457.832123,216.969574 459.343170,208.847672 
	C459.798218,206.401733 461.380127,203.972229 462.993164,201.977829 
	C465.783203,198.528076 470.397034,195.906860 471.724823,192.066467 
	C473.932861,185.680038 479.718384,183.989120 483.792542,180.153015 
	C488.388977,175.825195 491.013947,170.984467 491.216736,164.465286 
	C491.614532,151.677368 491.904480,138.700333 497.221954,126.789345 
	C500.181671,120.159691 504.303436,113.997986 508.329163,107.908089 
	C513.238708,100.481194 521.784729,101.001678 529.181824,99.462433 
	C538.898865,97.440430 544.489563,103.251709 548.282959,111.141785 
	C555.490356,126.132988 560.645813,141.644165 559.825623,158.647461 
	C559.513000,165.130264 559.530090,171.659729 559.962036,178.130219 
	C560.104004,180.257111 561.590759,183.588318 563.202454,184.118073 
	C575.958923,188.311203 579.927612,198.405472 581.335449,210.183594 
	C582.202759,217.439133 582.535034,224.767593 582.888428,232.073914 
	C583.972290,254.483215 584.950317,276.897644 585.973633,299.787292 
M566.594238,338.189606 
	C566.606384,340.152466 566.618530,342.115295 566.191467,344.589478 
	C566.378540,346.242004 566.565552,347.894501 566.752563,349.547028 
	C567.333496,349.569519 567.914368,349.591980 568.495239,349.614471 
	C568.746094,347.407318 568.997009,345.200165 569.297668,342.435760 
	C569.317932,342.063354 569.338196,341.690948 570.014893,340.896088 
	C569.788818,335.827972 569.562805,330.759857 569.301086,325.146027 
	C569.268921,324.783417 569.236755,324.420776 569.651672,323.510590 
	C568.267273,312.757111 566.882874,302.003632 565.498474,291.250183 
	C564.981201,291.248322 564.463989,291.246490 563.946716,291.244629 
	C563.640991,292.904907 563.036743,294.572601 563.078003,296.224213 
	C563.345947,306.944336 563.718445,317.662476 564.176514,328.376129 
	C564.218567,329.359985 565.101013,330.307861 565.654724,331.839722 
	C565.695374,332.218567 565.736023,332.597382 565.349548,333.458801 
	C565.753113,334.758087 566.156677,336.057343 566.594238,338.189606 
M475.029968,281.636505 
	C474.455597,287.169098 473.881195,292.701691 473.306824,298.234283 
	C474.040497,298.395935 474.774200,298.557587 475.507874,298.719208 
	C476.278900,297.080597 477.817322,295.376801 477.684631,293.814941 
	C477.180573,287.882690 480.256226,283.749054 483.649841,279.527679 
	C485.046051,277.790955 486.703491,275.504089 486.651245,273.509125 
	C486.508728,268.065430 485.690796,262.614899 484.778778,257.228271 
	C484.424835,255.137604 483.099976,253.211349 482.217407,251.210205 
	C481.682190,251.275314 481.146942,251.340424 480.611725,251.405533 
	C480.108215,254.422958 479.654541,257.449707 479.091125,260.455902 
	C477.817749,267.250061 476.490204,274.034058 475.029968,281.636505 
z"/>
<path fill="#68AE6C" opacity="1.000000" stroke="none" 
	d="
M802.885620,136.230713 
	C801.616455,146.879745 796.873413,155.321014 789.804077,162.582169 
	C787.895996,164.542007 787.274170,166.390686 790.524597,167.319061 
	C796.234375,168.949844 800.265198,171.871704 801.580750,178.166748 
	C801.906250,179.724167 804.437744,181.036942 806.196594,182.038101 
	C811.621826,185.126282 817.161255,188.013870 822.662109,190.968750 
	C823.820435,191.590942 824.953186,192.310715 826.183472,192.739380 
	C830.148438,194.120850 832.290283,196.873505 833.487610,200.883179 
	C835.244873,206.767776 837.387329,212.542969 839.508362,218.312302 
	C846.000305,235.970413 850.010193,253.906830 846.599792,272.878479 
	C845.692139,277.927917 843.534180,281.092102 838.460388,283.062469 
	C833.311584,285.061981 828.637939,288.354492 823.892029,291.299591 
	C820.323853,293.513794 820.094543,296.679291 821.630066,300.447845 
	C823.550781,305.161591 824.998413,310.065765 826.791748,314.834534 
	C827.968079,317.962372 826.671753,319.847504 824.163574,321.509705 
	C818.995239,324.934906 818.099976,329.840607 821.102844,335.292603 
	C822.239868,337.357086 822.670349,339.838440 823.251221,342.172516 
	C823.687561,343.926025 823.344421,346.058716 824.221924,347.485107 
	C827.939087,353.526764 827.865479,360.123749 827.816467,366.820862 
	C827.726257,379.149506 827.659790,391.481628 827.870056,403.807404 
	C827.952026,408.608124 828.574158,413.434296 829.356201,418.181946 
	C831.748230,432.704224 829.593323,447.120514 827.220215,461.270172 
	C826.325745,466.603424 827.899109,473.342438 822.705139,477.750336 
	C822.488159,477.934570 822.435303,478.355530 822.378479,478.678955 
	C819.202515,496.762543 810.076782,512.901611 805.443298,530.509399 
	C803.371521,538.382324 801.036926,546.192627 799.207886,554.120483 
	C798.050842,559.135559 801.033752,563.207764 804.827148,565.405457 
	C813.253479,570.287354 822.207703,574.252808 830.894531,578.694031 
	C832.937012,579.738159 835.315247,580.801697 836.559387,582.552490 
	C837.967468,584.533997 838.932495,587.353394 838.740234,589.697693 
	C838.660767,590.666016 835.082336,592.018250 833.073547,592.056458 
	C804.940796,592.591736 776.804565,592.972717 748.667664,593.208435 
	C746.990601,593.222473 743.945129,591.792786 743.871521,590.852112 
	C743.652954,588.060364 744.192200,585.021790 745.195862,582.367371 
	C746.570374,578.732239 749.600647,575.507141 750.158936,571.838135 
	C750.758179,567.900330 750.082947,563.357056 748.634705,559.588806 
	C741.532166,541.108459 737.267456,521.860596 733.184448,502.614929 
	C730.977356,492.211761 731.538086,481.525970 733.330078,470.842896 
	C736.737244,450.531067 735.976074,430.337616 729.100342,410.668915 
	C726.087891,402.051483 723.718750,393.117157 719.789001,384.936035 
	C715.002075,374.970306 713.961243,364.976410 715.743103,354.329224 
	C717.169556,345.805878 718.396729,337.246796 719.535461,328.680084 
	C719.711304,327.357056 719.361572,325.540253 718.529907,324.579163 
	C714.520752,319.946106 713.968567,313.428284 718.048950,308.958160 
	C720.357666,306.428955 721.537170,304.045746 721.301758,300.556580 
	C721.180786,298.762085 722.236938,296.684906 723.264648,295.052460 
	C727.102173,288.957031 726.755554,285.812531 722.338013,280.048767 
	C720.009949,277.011200 718.429993,273.363342 716.751099,269.876068 
	C715.238953,266.735168 714.090637,263.421051 712.709839,260.214325 
	C711.722534,257.921417 709.971924,255.759613 709.679443,253.400772 
	C708.641052,245.024918 708.028687,236.593826 707.372803,228.174484 
	C707.170715,225.579941 707.803711,222.857849 707.269043,220.362411 
	C704.771423,208.705032 708.731018,199.066147 717.450134,191.924225 
	C723.525879,186.947510 731.099060,183.831848 737.823303,179.598907 
	C740.817261,177.714218 743.396484,175.158615 746.098083,172.831131 
	C746.703308,172.309692 746.961670,171.406693 747.500427,170.783768 
	C752.042358,165.532028 752.050842,165.539337 747.038391,160.165009 
	C731.267944,143.256042 738.596069,111.161774 760.190552,102.423042 
	C768.865906,98.912369 777.437134,97.381531 786.087891,102.588280 
	C787.373718,103.362152 789.208618,103.223640 790.079956,104.133141 
	C792.597229,106.989906 795.174438,109.796410 797.619751,112.713524 
	C803.298462,119.488068 804.078125,127.432495 802.885620,136.230713 
M744.431519,151.022217 
	C746.687683,154.604721 749.275452,158.030106 751.075378,161.828796 
	C752.150146,164.097107 753.093567,167.504944 752.134155,169.415344 
	C750.571472,172.527206 747.792847,175.431168 744.834045,177.358536 
	C737.873291,181.892883 730.405396,185.640015 723.323364,189.999100 
	C714.665344,195.328186 708.795776,202.771072 708.990417,213.376022 
	C709.146484,221.881332 710.941528,230.389313 710.702087,238.859131 
	C710.498657,246.050232 710.268188,252.985397 714.186035,259.220581 
	C718.219971,265.640533 718.354858,273.810028 724.272949,279.548645 
	C726.620911,281.825378 728.291443,286.831940 727.513794,289.895966 
	C725.650635,297.237091 722.490112,304.325195 719.191650,311.197876 
	C717.130432,315.492645 716.092346,319.050598 719.480835,323.078247 
	C720.513550,324.305786 721.118164,326.411407 720.969788,328.027710 
	C720.213074,336.269562 719.374756,344.517792 718.126770,352.696960 
	C716.654297,362.348236 716.130432,371.674347 720.277527,381.016937 
	C725.378296,392.508057 729.331848,404.387085 732.612000,416.632111 
	C737.343079,434.293854 738.189514,451.645142 735.241394,469.596436 
	C733.827820,478.204041 733.172668,487.305450 734.353882,495.883026 
	C736.104370,508.595367 739.769470,521.046265 742.666260,533.597656 
	C744.227051,540.360474 744.486877,547.936279 747.883484,553.622070 
	C751.451172,559.594299 751.562256,565.558289 751.725281,571.581116 
	C751.822510,575.172791 749.200867,578.820251 747.893005,582.475281 
	C747.212769,584.376343 745.696411,586.968811 746.400940,588.143188 
	C747.467834,589.921753 750.158264,591.823975 752.131592,591.795105 
	C778.221436,591.414001 804.307861,590.751648 830.390137,589.987915 
	C832.571899,589.924011 834.717346,588.622986 836.879639,587.896729 
	C835.294861,585.797729 833.807190,583.612793 832.070862,581.647705 
	C831.488892,580.989136 830.289124,580.837646 829.343689,580.545227 
	C819.891357,577.621826 811.228577,573.130798 803.728271,566.712524 
	C799.533447,563.122803 795.708679,558.802246 797.445068,552.546692 
	C800.086548,543.030884 802.939148,533.570312 805.883362,524.142822 
	C810.647217,508.888824 815.620544,493.700256 820.377808,478.444244 
	C822.403625,471.947479 825.005066,465.452057 825.762024,458.776520 
	C827.141968,446.606201 827.695068,434.307800 827.895996,422.051422 
	C828.009338,415.143402 826.328369,408.221924 826.166626,401.289948 
	C825.863586,388.302063 826.209534,375.299866 825.986145,362.308807 
	C825.927673,358.905731 824.996704,355.457367 824.065430,352.142456 
	C822.242737,345.654449 819.549988,339.349335 818.388733,332.762024 
	C817.775391,329.282379 814.716919,324.029480 820.228882,321.751068 
	C825.868347,319.419891 825.861816,316.035522 823.802673,311.447662 
	C822.610107,308.790588 821.621521,306.041565 820.418030,303.389771 
	C817.521362,297.007111 819.022400,291.792816 825.022522,288.069183 
	C826.847229,286.936768 828.796631,285.995758 830.728088,285.046692 
	C838.068298,281.439819 845.342224,277.531555 845.740295,268.084900 
	C846.135193,258.713715 846.894592,249.333115 843.443909,240.101822 
	C840.702881,232.768921 839.241760,224.966171 836.992798,217.437637 
	C835.585266,212.725418 833.229248,208.241241 832.289246,203.460007 
	C831.325439,198.557861 828.161316,196.170532 824.403503,193.964813 
	C823.264587,193.296280 821.713989,193.042404 820.924500,192.112518 
	C816.474182,186.870682 810.119568,185.389725 804.131775,183.066452 
	C802.535645,182.447128 800.759827,180.997269 800.105957,179.480576 
	C797.958496,174.499405 795.867859,170.176971 789.559692,168.978073 
	C785.454041,168.197784 785.082214,165.216721 787.900024,161.763321 
	C793.858826,154.460587 799.191772,147.166489 801.112793,137.335068 
	C803.476562,125.237633 797.665100,110.326027 786.461609,105.030243 
	C780.399353,102.164658 774.631958,99.814316 767.123779,102.485962 
	C761.283813,104.564011 755.529907,106.456238 751.049255,110.511337 
	C740.608032,119.961006 737.745850,136.782990 744.431519,151.022217 
z"/>
<path fill="#D8FAFC" opacity="1.000000" stroke="none" 
	d="
M1086.354248,356.015564 
	C1085.836670,350.744720 1085.564087,345.910309 1084.726074,341.175934 
	C1084.080200,337.526215 1084.982544,335.040527 1088.786255,333.157715 
	C1098.196289,347.388153 1092.843140,361.404633 1087.863525,375.819244 
	C1087.343872,369.158356 1086.849976,362.826691 1086.354248,356.015564 
z"/>
<path fill="#5DDBF2" opacity="1.000000" stroke="none" 
	d="
M963.048035,377.570129 
	C963.490051,374.338074 963.944763,371.495850 964.440613,368.396454 
	C966.683350,370.801239 966.497375,377.502167 964.384949,379.313171 
	C964.353455,379.340210 963.519958,378.431793 963.048035,377.570129 
z"/>
<path fill="#FDF4BE" opacity="1.000000" stroke="none" 
	d="
M475.107330,281.229370 
	C476.490204,274.034058 477.817749,267.250061 479.091125,260.455902 
	C479.654541,257.449707 480.108215,254.422958 480.611725,251.405533 
	C481.146942,251.340424 481.682190,251.275314 482.217407,251.210205 
	C483.099976,253.211349 484.424835,255.137604 484.778778,257.228271 
	C485.690796,262.614899 486.508728,268.065430 486.651245,273.509125 
	C486.703491,275.504089 485.046051,277.790955 483.649841,279.527679 
	C480.256226,283.749054 477.180573,287.882690 477.684631,293.814941 
	C477.817322,295.376801 476.278900,297.080597 475.507874,298.719208 
	C474.774200,298.557587 474.040497,298.395935 473.306824,298.234283 
	C473.881195,292.701691 474.455597,287.169098 475.107330,281.229370 
z"/>
<path fill="#F9DF74" opacity="1.000000" stroke="none" 
	d="
M565.593262,331.272430 
	C565.101013,330.307861 564.218567,329.359985 564.176514,328.376129 
	C563.718445,317.662476 563.345947,306.944336 563.078003,296.224213 
	C563.036743,294.572601 563.640991,292.904907 563.946716,291.244629 
	C564.463989,291.246490 564.981201,291.248322 565.498474,291.250183 
	C566.882874,302.003632 568.267273,312.757111 569.130615,323.611481 
	C568.260193,322.688507 567.910950,321.664612 567.561646,320.640717 
	C567.112061,321.103546 566.662415,321.566376 566.212769,322.029205 
	C566.006287,325.110291 565.799805,328.191345 565.593262,331.272430 
z"/>
<path fill="#FFF9B6" opacity="1.000000" stroke="none" 
	d="
M565.624023,331.556091 
	C565.799805,328.191345 566.006287,325.110291 566.212769,322.029205 
	C566.662415,321.566376 567.112061,321.103546 567.561646,320.640717 
	C567.910950,321.664612 568.260193,322.688507 568.907104,323.885254 
	C569.236755,324.420776 569.268921,324.783417 569.205322,325.903046 
	C569.192566,331.546234 569.275574,336.432373 569.358521,341.318542 
	C569.338196,341.690948 569.317932,342.063354 568.935913,342.825195 
	C567.926331,343.502472 567.278503,343.790314 566.630615,344.078156 
	C566.618530,342.115295 566.606384,340.152466 566.715454,337.378387 
	C566.483398,335.370178 566.130066,334.173187 565.776672,332.976227 
	C565.736023,332.597382 565.695374,332.218567 565.624023,331.556091 
z"/>
<path fill="#F9DF74" opacity="1.000000" stroke="none" 
	d="
M569.686707,341.107300 
	C569.275574,336.432373 569.192566,331.546234 569.223145,326.175903 
	C569.562805,330.759857 569.788818,335.827972 569.686707,341.107300 
z"/>
<path fill="#F9DF74" opacity="1.000000" stroke="none" 
	d="
M566.411072,344.333801 
	C567.278503,343.790314 567.926331,343.502472 568.911011,343.103821 
	C568.997009,345.200165 568.746094,347.407318 568.495239,349.614471 
	C567.914368,349.591980 567.333496,349.569519 566.752563,349.547028 
	C566.565552,347.894501 566.378540,346.242004 566.411072,344.333801 
z"/>
<path fill="#F9DF74" opacity="1.000000" stroke="none" 
	d="
M565.563110,333.217529 
	C566.130066,334.173187 566.483398,335.370178 566.698486,336.961914 
	C566.156677,336.057343 565.753113,334.758087 565.563110,333.217529 
z"/>
<path fill="#32A838" opacity="1.000000" stroke="none" 
	d="
M744.283386,150.658356 
	C737.745850,136.782990 740.608032,119.961006 751.049255,110.511337 
	C755.529907,106.456238 761.283813,104.564011 767.123779,102.485962 
	C774.631958,99.814316 780.399353,102.164658 786.461609,105.030243 
	C797.665100,110.326027 803.476562,125.237633 801.112793,137.335068 
	C799.191772,147.166489 793.858826,154.460587 787.900024,161.763321 
	C785.082214,165.216721 785.454041,168.197784 789.559692,168.978073 
	C795.867859,170.176971 797.958496,174.499405 800.105957,179.480576 
	C800.759827,180.997269 802.535645,182.447128 804.131775,183.066452 
	C810.119568,185.389725 816.474182,186.870682 820.924500,192.112518 
	C821.713989,193.042404 823.264587,193.296280 824.403503,193.964813 
	C828.161316,196.170532 831.325439,198.557861 832.289246,203.460007 
	C833.229248,208.241241 835.585266,212.725418 836.992798,217.437637 
	C839.241760,224.966171 840.702881,232.768921 843.443909,240.101822 
	C846.894592,249.333115 846.135193,258.713715 845.740295,268.084900 
	C845.342224,277.531555 838.068298,281.439819 830.728088,285.046692 
	C828.796631,285.995758 826.847229,286.936768 825.022522,288.069183 
	C819.022400,291.792816 817.521362,297.007111 820.418030,303.389771 
	C821.621521,306.041565 822.610107,308.790588 823.802673,311.447662 
	C825.861816,316.035522 825.868347,319.419891 820.228882,321.751068 
	C814.716919,324.029480 817.775391,329.282379 818.388733,332.762024 
	C819.549988,339.349335 822.242737,345.654449 824.065430,352.142456 
	C824.996704,355.457367 825.927673,358.905731 825.986145,362.308807 
	C826.209534,375.299866 825.863586,388.302063 826.166626,401.289948 
	C826.328369,408.221924 828.009338,415.143402 827.895996,422.051422 
	C827.695068,434.307800 827.141968,446.606201 825.762024,458.776520 
	C825.005066,465.452057 822.403625,471.947479 820.377808,478.444244 
	C815.620544,493.700256 810.647217,508.888824 805.883362,524.142822 
	C802.939148,533.570312 800.086548,543.030884 797.445068,552.546692 
	C795.708679,558.802246 799.533447,563.122803 803.728271,566.712524 
	C811.228577,573.130798 819.891357,577.621826 829.343689,580.545227 
	C830.289124,580.837646 831.488892,580.989136 832.070862,581.647705 
	C833.807190,583.612793 835.294861,585.797729 836.879639,587.896729 
	C834.717346,588.622986 832.571899,589.924011 830.390137,589.987915 
	C804.307861,590.751648 778.221436,591.414001 752.131592,591.795105 
	C750.158264,591.823975 747.467834,589.921753 746.400940,588.143188 
	C745.696411,586.968811 747.212769,584.376343 747.893005,582.475281 
	C749.200867,578.820251 751.822510,575.172791 751.725281,571.581116 
	C751.562256,565.558289 751.451172,559.594299 747.883484,553.622070 
	C744.486877,547.936279 744.227051,540.360474 742.666260,533.597656 
	C739.769470,521.046265 736.104370,508.595367 734.353882,495.883026 
	C733.172668,487.305450 733.827820,478.204041 735.241394,469.596436 
	C738.189514,451.645142 737.343079,434.293854 732.612000,416.632111 
	C729.331848,404.387085 725.378296,392.508057 720.277527,381.016937 
	C716.130432,371.674347 716.654297,362.348236 718.126770,352.696960 
	C719.374756,344.517792 720.213074,336.269562 720.969788,328.027710 
	C721.118164,326.411407 720.513550,324.305786 719.480835,323.078247 
	C716.092346,319.050598 717.130432,315.492645 719.191650,311.197876 
	C722.490112,304.325195 725.650635,297.237091 727.513794,289.895966 
	C728.291443,286.831940 726.620911,281.825378 724.272949,279.548645 
	C718.354858,273.810028 718.219971,265.640533 714.186035,259.220581 
	C710.268188,252.985397 710.498657,246.050232 710.702087,238.859131 
	C710.941528,230.389313 709.146484,221.881332 708.990417,213.376022 
	C708.795776,202.771072 714.665344,195.328186 723.323364,189.999100 
	C730.405396,185.640015 737.873291,181.892883 744.834045,177.358536 
	C747.792847,175.431168 750.571472,172.527206 752.134155,169.415344 
	C753.093567,167.504944 752.150146,164.097107 751.075378,161.828796 
	C749.275452,158.030106 746.687683,154.604721 744.283386,150.658356 
M786.408020,452.242767 
	C787.493530,441.483337 788.354919,430.854248 784.601196,420.235107 
	C781.051514,410.193420 781.205078,399.021027 776.121582,389.347565 
	C775.246399,390.280609 774.933960,391.055664 774.815063,391.859406 
	C771.932800,411.345581 771.553833,430.940491 772.279968,450.584137 
	C772.332581,452.009491 772.553772,453.557861 772.112427,454.849426 
	C770.362122,459.971710 767.564880,464.880188 766.699463,470.122742 
	C765.724304,476.030090 765.390320,482.423492 766.593506,488.229126 
	C768.922791,499.468719 769.615845,510.519897 768.325745,521.943115 
	C767.414124,530.014954 765.820801,538.335938 769.091614,546.383789 
	C769.949890,548.495483 770.674988,550.661255 771.461243,552.802185 
	C772.085388,552.676514 772.709534,552.550903 773.333679,552.425232 
	C773.333679,549.056885 773.324768,545.688477 773.340149,542.320190 
	C773.343811,541.520142 773.351196,540.706848 773.488586,539.922668 
	C774.876770,531.999390 777.609314,524.047302 777.408203,516.168518 
	C777.059387,502.506226 780.934204,490.290741 786.123413,478.066376 
	C787.876343,473.936920 788.844116,469.208313 788.947021,464.725464 
	C789.035034,460.893005 787.371948,457.020355 786.408020,452.242767 
z"/>
<path fill="#EEFBEF" opacity="1.000000" stroke="none" 
	d="
M786.445740,452.704102 
	C787.371948,457.020355 789.035034,460.893005 788.947021,464.725464 
	C788.844116,469.208313 787.876343,473.936920 786.123413,478.066376 
	C780.934204,490.290741 777.059387,502.506226 777.408203,516.168518 
	C777.609314,524.047302 774.876770,531.999390 773.488586,539.922668 
	C773.351196,540.706848 773.343811,541.520142 773.340149,542.320190 
	C773.324768,545.688477 773.333679,549.056885 773.333679,552.425232 
	C772.709534,552.550903 772.085388,552.676514 771.461243,552.802185 
	C770.674988,550.661255 769.949890,548.495483 769.091614,546.383789 
	C765.820801,538.335938 767.414124,530.014954 768.325745,521.943115 
	C769.615845,510.519897 768.922791,499.468719 766.593506,488.229126 
	C765.390320,482.423492 765.724304,476.030090 766.699463,470.122742 
	C767.564880,464.880188 770.362122,459.971710 772.112427,454.849426 
	C772.553772,453.557861 772.332581,452.009491 772.279968,450.584137 
	C771.553833,430.940491 771.932800,411.345581 774.815063,391.859406 
	C774.933960,391.055664 775.246399,390.280609 776.121582,389.347565 
	C781.205078,399.021027 781.051514,410.193420 784.601196,420.235107 
	C788.354919,430.854248 787.493530,441.483337 786.445740,452.704102 
z"/>
</svg>