<svg version="1.1" id="Layer_1" xmlns="http://www.w3.org/2000/svg" xmlns:xlink="http://www.w3.org/1999/xlink" x="0px" y="0px"
	 width="100%" viewBox="0 0 1258 850" enable-background="new 0 0 1258 850" xml:space="preserve">
<path fill="#EFEAE6" opacity="1.000000" stroke="none" 
	d="
M767.000000,851.000000 
	C511.363525,851.000000 256.227081,851.000000 1.045308,851.000000 
	C1.045308,567.730408 1.045308,284.460815 1.045308,1.095617 
	C420.219910,1.095617 839.439880,1.095617 1258.829834,1.095617 
	C1258.829834,284.333252 1258.829834,567.666626 1258.829834,851.000000 
	C1095.127197,851.000000 931.313599,851.000000 767.000000,851.000000 
M793.182068,769.807373 
	C811.974243,769.836609 830.989380,771.710510 849.507629,769.472900 
	C879.016846,765.907166 905.049805,752.830811 927.972229,733.755432 
	C930.514282,731.639954 931.532715,729.565308 930.949768,725.845886 
	C946.344116,710.822937 958.470093,693.576782 967.142456,673.826050 
	C979.546326,645.576965 983.745239,616.099182 979.773865,585.683044 
	C976.141724,557.864990 965.836365,532.491821 948.968933,509.867737 
	C930.329346,484.866791 906.659302,466.425354 877.744385,454.816559 
	C852.806091,444.804291 826.995728,441.186066 800.146790,443.873901 
	C780.041931,445.886627 760.881775,451.010712 743.021118,460.160004 
	C713.971008,475.041107 690.820984,496.382996 674.378052,524.892639 
	C655.789062,557.123108 648.622620,591.711060 653.293152,628.427307 
	C655.921631,649.090881 662.037598,668.905762 672.524475,687.263794 
	C682.965271,705.541199 696.066040,721.413330 712.285278,734.771179 
	C730.652710,749.898315 751.318054,760.562134 774.339783,766.562500 
	C778.297607,767.594116 782.433105,767.943542 787.113037,768.647888 
	C787.738708,768.776184 788.364380,768.904480 789.496704,769.545288 
	C790.447510,769.636108 791.398315,769.726990 793.182068,769.807373 
M733.345703,361.589844 
	C756.996704,377.742554 783.462341,385.902039 811.740906,387.772369 
	C844.163025,389.916687 874.830750,383.003815 903.175476,366.871918 
	C917.679993,358.616882 931.064758,348.834473 942.570801,335.702515 
	C946.665710,330.713562 950.894043,325.827515 954.833008,320.718292 
	C975.069946,294.468811 984.843140,264.240906 986.705017,231.606537 
	C987.443420,218.663071 985.952698,205.378174 983.807434,192.527420 
	C978.784485,162.437393 964.959839,136.284683 944.890930,113.540024 
	C929.399475,95.983032 910.647034,82.611198 889.208252,73.112503 
	C868.927795,64.126991 847.667358,59.522522 825.496948,58.988808 
	C808.086304,58.569668 791.099915,61.131351 774.452759,66.091232 
	C750.635620,73.187332 729.628784,85.265305 711.405273,102.126907 
	C697.649719,114.854500 686.273132,129.384506 677.285889,145.939148 
	C666.069519,166.600113 659.759033,188.668015 658.164795,211.891663 
	C656.319702,238.770248 660.855774,264.731445 671.636963,289.651520 
	C681.763794,313.059113 697.165527,332.376129 715.960083,349.149567 
	C721.087341,353.725464 727.298828,357.086609 733.345703,361.589844 
M550.756775,729.664124 
	C565.743896,716.162964 578.165405,700.595459 587.126221,682.532410 
	C601.472595,653.613464 607.506409,623.121948 604.154297,590.755432 
	C602.000793,569.962280 596.370300,550.326843 586.816772,531.870972 
	C577.643066,514.148682 565.441284,498.613129 550.652832,485.180725 
	C539.278687,474.849609 526.537659,466.560913 512.757385,459.746094 
	C494.662170,450.797333 475.619202,445.794861 455.533813,443.749054 
	C436.248291,441.784698 417.238159,443.112152 398.859772,448.477539 
	C385.407684,452.404785 372.256470,457.996063 359.744965,464.365601 
	C340.075775,474.378967 323.968231,489.211212 310.452637,506.516541 
	C296.915100,523.849915 287.337097,543.399719 281.648315,564.716309 
	C276.022461,585.797058 274.274597,607.235229 277.244934,628.866882 
	C280.444611,652.168945 287.876465,674.057434 300.513336,694.063782 
	C311.634033,711.669861 325.000000,727.151062 342.272278,739.744995 
	C343.437378,741.196594 344.344330,743.014343 345.806183,744.045044 
	C369.277557,760.593079 395.269806,770.491821 423.910889,773.187378 
	C470.537659,777.575684 511.731018,764.475586 547.587219,734.473694 
	C548.833069,733.431213 549.364685,731.535217 550.756775,729.664124 
M551.727417,344.677032 
	C568.789001,329.107239 582.001953,310.834167 591.255249,289.601379 
	C603.577332,261.326599 607.721924,231.861526 603.724365,201.453537 
	C601.046875,181.086929 594.683350,161.760483 584.445862,143.691406 
	C567.734131,114.195343 544.509644,91.540215 514.307861,76.400055 
	C486.075684,62.247257 456.105591,56.636276 424.460510,59.879280 
	C402.682892,62.111065 382.276917,68.137489 362.960968,78.431534 
	C341.148712,90.055893 323.028442,105.863190 308.308380,125.564850 
	C289.002563,151.404221 278.765167,180.767029 276.126556,212.724670 
	C274.612366,231.063538 276.749756,249.325653 281.667389,266.975800 
	C291.221191,301.265961 309.937531,329.779419 338.380127,352.509308 
	C379.930267,384.428284 426.451508,394.918671 477.533508,383.829712 
	C505.516235,377.755157 530.192383,364.721069 551.727417,344.677032 
z"/>
<path fill="#DBD6D0" opacity="1.000000" stroke="none" 
	d="
M337.932617,352.010284 
	C309.937531,329.779419 291.221191,301.265961 281.667389,266.975800 
	C276.749756,249.325653 274.612366,231.063538 276.126556,212.724670 
	C278.765167,180.767029 289.002563,151.404221 308.308380,125.564850 
	C323.028442,105.863190 341.148712,90.055893 362.960968,78.431534 
	C382.276917,68.137489 402.682892,62.111065 424.460510,59.879280 
	C456.105591,56.636276 486.075684,62.247257 514.307861,76.400055 
	C544.509644,91.540215 567.734131,114.195343 584.445862,143.691406 
	C594.683350,161.760483 601.046875,181.086929 603.724365,201.453537 
	C607.721924,231.861526 603.577332,261.326599 591.255249,289.601379 
	C582.001953,310.834167 568.789001,329.107239 551.370789,344.463135 
	C550.569702,342.477264 550.215271,340.676910 549.667175,338.937500 
	C542.028931,314.694458 527.252991,297.486206 502.142578,290.160248 
	C490.687012,286.818085 479.399902,282.898651 468.010620,278.754700 
	C467.984863,272.672882 467.984863,267.077454 467.984863,261.403107 
	C469.637482,261.186890 470.623657,261.149841 471.562683,260.920105 
	C477.520813,259.462372 484.397705,260.122742 488.381989,253.994415 
	C490.361450,250.949799 492.277954,247.837021 493.905457,244.595688 
	C500.129456,232.199875 499.607544,218.553879 501.282654,205.051697 
	C502.801300,201.765671 504.443695,198.788467 505.176819,195.602066 
	C508.491058,181.197754 509.034302,166.610825 507.529755,151.918137 
	C506.802368,144.814957 506.203613,137.696167 505.722504,130.572601 
	C505.642700,129.391037 506.313538,128.067932 506.898712,126.946533 
	C512.046326,117.081200 513.285461,106.601913 510.885956,95.908623 
	C510.091614,92.368622 507.267853,89.283997 505.371979,85.991173 
	C503.029877,94.667145 499.482910,98.147331 491.055206,99.468597 
	C490.929352,91.224739 485.143036,88.371292 480.655884,86.822296 
	C475.426453,89.757019 471.931671,92.669060 467.934357,93.791656 
	C453.161774,97.940315 437.895996,97.773521 422.775238,97.005783 
	C412.860046,96.502357 404.579834,99.552734 397.729309,105.960869 
	C391.857147,111.453735 387.017303,118.050163 381.577820,124.323586 
	C378.265198,121.296585 379.273590,116.815140 379.994781,112.207512 
	C373.255981,114.548790 372.451263,119.547905 373.087524,124.746674 
	C370.150299,126.582520 367.549072,128.208359 364.981262,129.813293 
	C369.239624,131.185608 372.739716,132.313553 376.943146,133.668152 
	C369.569824,145.262863 370.142822,156.727371 373.737823,168.165695 
	C377.025391,178.625900 380.659821,189.001694 384.689301,199.198166 
	C390.304779,213.407959 399.681458,225.027039 411.156647,235.429169 
	C412.903656,237.831406 414.500793,239.944458 416.062622,242.504456 
	C416.074799,245.954605 416.122314,248.957764 416.115875,252.429169 
	C416.040771,261.631561 416.019653,270.365753 415.639771,279.195923 
	C402.175354,283.502686 389.079865,287.745239 375.961731,291.916656 
	C357.300903,297.850647 345.391327,310.093658 341.370667,329.402802 
	C339.819092,336.854187 339.055328,344.469604 337.932617,352.010284 
z"/>
<path fill="#DBD6D0" opacity="1.000000" stroke="none" 
	d="
M786.486572,768.608032 
	C782.433105,767.943542 778.297607,767.594116 774.339783,766.562500 
	C751.318054,760.562134 730.652710,749.898315 712.285278,734.771179 
	C696.066040,721.413330 682.965271,705.541199 672.524475,687.263794 
	C662.037598,668.905762 655.921631,649.090881 653.293152,628.427307 
	C648.622620,591.711060 655.789062,557.123108 674.378052,524.892639 
	C690.820984,496.382996 713.971008,475.041107 743.021118,460.160004 
	C760.881775,451.010712 780.041931,445.886627 800.146790,443.873901 
	C826.995728,441.186066 852.806091,444.804291 877.744385,454.816559 
	C906.659302,466.425354 930.329346,484.866791 948.968933,509.867737 
	C965.836365,532.491821 976.141724,557.864990 979.773865,585.683044 
	C983.745239,616.099182 979.546326,645.576965 967.142456,673.826050 
	C958.470093,693.576782 946.344116,710.822937 930.586548,725.821655 
	C924.265808,702.202637 911.782166,683.692627 888.452698,674.480774 
	C876.868286,669.906555 864.754517,666.668823 852.860840,662.887268 
	C851.298645,662.390564 849.621216,662.256287 847.995605,661.985596 
	C847.994080,662.017090 848.056213,662.026672 847.937866,661.838257 
	C847.644897,661.381653 847.398071,661.236389 847.055542,660.734131 
	C846.995911,655.161865 846.959656,650.069458 846.951782,644.608093 
	C847.017151,643.500000 847.054199,642.760803 847.432861,642.177979 
	C856.187744,642.365723 864.179993,641.738464 869.350464,633.471069 
	C875.503174,623.633240 878.170166,612.872314 879.015076,601.480835 
	C879.528320,594.561096 880.198242,587.653076 880.852539,580.335815 
	C881.280640,577.301025 881.924988,574.675964 881.982117,572.038269 
	C882.292053,557.726990 882.815796,543.404541 882.494568,529.103210 
	C882.366333,523.395386 883.693604,520.331360 889.001648,517.541199 
	C899.626770,511.956116 901.293762,503.043030 894.025513,493.480103 
	C890.840881,489.290009 887.021545,485.361511 882.823242,482.200378 
	C863.555359,467.692535 841.439392,463.662415 818.058594,466.548492 
	C803.337280,468.365601 788.900269,472.020569 776.463074,480.831085 
	C769.601868,485.691528 764.329773,491.672577 763.826355,500.739868 
	C763.755676,502.012512 762.383911,503.565948 761.194519,504.362579 
	C755.940002,507.881866 752.185974,512.579773 751.348267,518.782104 
	C750.530701,524.835876 749.955200,531.127014 750.675415,537.146179 
	C753.057922,557.057739 760.000793,575.717346 770.119751,592.786926 
	C775.502319,601.866821 783.947266,609.131409 791.148926,617.510681 
	C792.825439,620.184998 794.363037,622.564026 795.895020,625.398682 
	C795.880371,628.550049 795.871399,631.245850 795.615662,634.278076 
	C795.245911,643.408936 795.122925,652.203308 794.631836,661.073486 
	C781.771301,665.154785 769.307800,669.253540 756.779724,673.144348 
	C737.422180,679.156006 724.584045,691.294617 720.450562,711.583557 
	C719.226807,717.590637 718.761841,723.754578 717.480957,729.746582 
	C716.807190,732.898438 717.662292,735.002563 720.124023,736.524658 
	C731.266907,743.414124 742.053162,751.056824 753.770020,756.788513 
	C764.124939,761.853882 775.539734,764.752747 786.486572,768.608032 
z"/>
<path fill="#DBD6D0" opacity="1.000000" stroke="none" 
	d="
M342.267059,739.030396 
	C325.000000,727.151062 311.634033,711.669861 300.513336,694.063782 
	C287.876465,674.057434 280.444611,652.168945 277.244934,628.866882 
	C274.274597,607.235229 276.022461,585.797058 281.648315,564.716309 
	C287.337097,543.399719 296.915100,523.849915 310.452637,506.516541 
	C323.968231,489.211212 340.075775,474.378967 359.744965,464.365601 
	C372.256470,457.996063 385.407684,452.404785 398.859772,448.477539 
	C417.238159,443.112152 436.248291,441.784698 455.533813,443.749054 
	C475.619202,445.794861 494.662170,450.797333 512.757385,459.746094 
	C526.537659,466.560913 539.278687,474.849609 550.652832,485.180725 
	C565.441284,498.613129 577.643066,514.148682 586.816772,531.870972 
	C596.370300,550.326843 602.000793,569.962280 604.154297,590.755432 
	C607.506409,623.121948 601.472595,653.613464 587.126221,682.532410 
	C578.165405,700.595459 565.743896,716.162964 550.369995,729.478882 
	C549.639587,728.013428 549.323364,726.725220 548.948242,725.454285 
	C542.925903,705.048706 531.521057,688.561646 511.537903,680.290588 
	C498.610474,674.940002 484.608582,672.185364 470.877167,667.957642 
	C468.707428,666.423523 465.402649,666.475708 466.444397,662.855957 
	C480.368164,666.619446 493.340088,666.035217 501.623016,653.301941 
	C506.475403,645.842407 510.046326,636.876282 511.680542,628.118896 
	C517.233887,598.359375 517.378174,568.190735 515.613098,538.055359 
	C515.230408,531.520813 513.906250,524.715942 511.435333,518.682800 
	C497.183868,483.885620 461.311829,463.668091 424.274017,470.285095 
	C397.439392,475.079193 379.614929,488.496552 374.511139,515.789307 
	C367.577515,552.867249 366.347229,590.185608 371.392944,627.596008 
	C372.768860,637.797485 374.889099,647.986023 380.910919,656.759705 
	C386.246918,664.534180 395.632996,668.097900 404.587402,665.118469 
	C410.223694,663.243103 415.512848,660.324463 420.962250,658.318909 
	C421.054230,662.859314 421.929352,667.382202 415.531647,668.229736 
	C406.178497,671.651917 397.180023,675.019043 388.155304,678.314270 
	C368.325165,685.554871 355.301819,699.598267 347.989258,719.057312 
	C345.560944,725.519287 344.145538,732.361816 342.267059,739.030396 
z"/>
<path fill="#DBD6D0" opacity="1.000000" stroke="none" 
	d="
M733.012695,361.005249 
	C727.298828,357.086609 721.087341,353.725464 715.960083,349.149567 
	C697.165527,332.376129 681.763794,313.059113 671.636963,289.651520 
	C660.855774,264.731445 656.319702,238.770248 658.164795,211.891663 
	C659.759033,188.668015 666.069519,166.600113 677.285889,145.939148 
	C686.273132,129.384506 697.649719,114.854500 711.405273,102.126907 
	C729.628784,85.265305 750.635620,73.187332 774.452759,66.091232 
	C791.099915,61.131351 808.086304,58.569668 825.496948,58.988808 
	C847.667358,59.522522 868.927795,64.126991 889.208252,73.112503 
	C910.647034,82.611198 929.399475,95.983032 944.890930,113.540024 
	C964.959839,136.284683 978.784485,162.437393 983.807434,192.527420 
	C985.952698,205.378174 987.443420,218.663071 986.705017,231.606537 
	C984.843140,264.240906 975.069946,294.468811 954.833008,320.718292 
	C950.894043,325.827515 946.665710,330.713562 942.108032,335.495422 
	C938.900024,318.206421 932.035522,303.111572 918.845459,291.665833 
	C913.161743,286.733704 906.274353,283.188629 899.959473,278.542969 
	C900.031616,239.418518 900.062195,200.764465 900.133301,162.110489 
	C900.157654,148.872421 898.483154,135.910583 894.187744,123.342186 
	C887.829102,104.736656 876.389893,91.527458 856.203064,87.656609 
	C848.540405,86.187309 840.913940,84.304581 833.178345,83.485786 
	C815.105164,81.572777 798.071472,84.701988 784.372620,97.533737 
	C770.251038,110.761528 762.339966,127.586784 760.146606,146.691956 
	C758.882629,157.701889 758.952576,168.897903 758.928528,180.011246 
	C758.847778,217.329788 758.994446,254.648834 758.763306,292.138611 
	C747.365723,302.973724 741.670044,316.611420 738.125061,331.117157 
	C735.731506,340.911346 734.670044,351.031128 733.012695,361.005249 
z"/>
<path fill="#75AFD1" opacity="1.000000" stroke="none" 
	d="
M733.179199,361.297546 
	C734.670044,351.031128 735.731506,340.911346 738.125061,331.117157 
	C741.670044,316.611420 747.365723,302.973724 759.047180,291.975281 
	C765.519714,287.780487 771.042480,283.073975 777.401978,280.254669 
	C787.324402,275.855743 797.814148,272.736511 808.026978,269.482941 
	C807.675171,272.341034 806.902344,274.833282 807.123169,277.234161 
	C808.129028,288.168915 814.504944,295.711609 823.249878,301.577179 
	C824.156982,302.185577 825.451294,302.699097 826.480469,302.570770 
	C842.900024,300.523773 860.212830,287.009399 862.558960,268.926300 
	C867.380127,270.154144 871.804504,271.371490 876.232239,272.576385 
	C884.131653,274.726013 892.033203,276.868164 899.933838,279.013428 
	C906.274353,283.188629 913.161743,286.733704 918.845459,291.665833 
	C932.035522,303.111572 938.900024,318.206421 941.805664,335.641174 
	C931.064758,348.834473 917.679993,358.616882 903.175476,366.871918 
	C874.830750,383.003815 844.163025,389.916687 811.740906,387.772369 
	C783.462341,385.902039 756.996704,377.742554 733.179199,361.297546 
z"/>
<path fill="#DCAE3C" opacity="1.000000" stroke="none" 
	d="
M847.997192,661.954224 
	C849.621216,662.256287 851.298645,662.390564 852.860840,662.887268 
	C864.754517,666.668823 876.868286,669.906555 888.452698,674.480774 
	C911.782166,683.692627 924.265808,702.202637 930.391541,726.140686 
	C931.532715,729.565308 930.514282,731.639954 927.972229,733.755432 
	C905.049805,752.830811 879.016846,765.907166 849.507629,769.472900 
	C830.989380,771.710510 811.974243,769.836609 792.477905,769.597290 
	C790.845825,769.269104 789.917969,769.150940 788.990112,769.032715 
	C788.364380,768.904480 787.738708,768.776184 786.799805,768.627991 
	C775.539734,764.752747 764.124939,761.853882 753.770020,756.788513 
	C742.053162,751.056824 731.266907,743.414124 720.124023,736.524658 
	C717.662292,735.002563 716.807190,732.898438 717.480957,729.746582 
	C718.761841,723.754578 719.226807,717.590637 720.450562,711.583557 
	C724.584045,691.294617 737.422180,679.156006 756.779724,673.144348 
	C769.307800,669.253540 781.771301,665.154785 794.871033,661.310059 
	C798.719238,664.620972 801.462036,668.726746 805.301697,670.727417 
	C814.007935,675.263855 823.756226,674.895813 833.164978,673.614807 
	C844.104614,672.125305 846.902954,669.446716 847.997192,661.954224 
z"/>
<path fill="#E04A47" opacity="1.000000" stroke="none" 
	d="
M468.036377,279.241058 
	C479.399902,282.898651 490.687012,286.818085 502.142578,290.160248 
	C527.252991,297.486206 542.028931,314.694458 549.667175,338.937500 
	C550.215271,340.676910 550.569702,342.477264 551.097412,344.638916 
	C530.192383,364.721069 505.516235,377.755157 477.533508,383.829712 
	C426.451508,394.918671 379.930267,384.428284 338.156372,352.259796 
	C339.055328,344.469604 339.819092,336.854187 341.370667,329.402802 
	C345.391327,310.093658 357.300903,297.850647 375.961731,291.916656 
	C389.079865,287.745239 402.175354,283.502686 415.762817,279.512329 
	C419.068848,282.621246 421.396698,286.483948 424.807190,288.221680 
	C436.639587,294.250519 449.106445,293.530060 461.503265,289.810669 
	C466.655182,288.264984 469.150818,284.798737 468.036377,279.241058 
z"/>
<path fill="#79B145" opacity="1.000000" stroke="none" 
	d="
M342.269653,739.387695 
	C344.145538,732.361816 345.560944,725.519287 347.989258,719.057312 
	C355.301819,699.598267 368.325165,685.554871 388.155304,678.314270 
	C397.180023,675.019043 406.178497,671.651917 415.704651,668.515869 
	C418.455139,671.105713 420.245575,674.515259 422.999481,675.717041 
	C436.795502,681.737854 450.976074,681.964478 465.031738,676.481506 
	C468.447327,675.148987 471.391754,672.711243 471.088196,668.267456 
	C484.608582,672.185364 498.610474,674.940002 511.537903,680.290588 
	C531.521057,688.561646 542.925903,705.048706 548.948242,725.454285 
	C549.323364,726.725220 549.639587,728.013428 550.106201,729.665344 
	C549.364685,731.535217 548.833069,733.431213 547.587219,734.473694 
	C511.731018,764.475586 470.537659,777.575684 423.910889,773.187378 
	C395.269806,770.491821 369.277557,760.593079 345.806183,744.045044 
	C344.344330,743.014343 343.437378,741.196594 342.269653,739.387695 
z"/>
<path fill="#DBD6D0" opacity="1.000000" stroke="none" 
	d="
M789.243408,769.289001 
	C789.917969,769.150940 790.845825,769.269104 792.061401,769.602539 
	C791.398315,769.726990 790.447510,769.636108 789.243408,769.289001 
z"/>
<path fill="#EEA190" opacity="1.000000" stroke="none" 
	d="
M468.010620,278.754700 
	C469.150818,284.798737 466.655182,288.264984 461.503265,289.810669 
	C449.106445,293.530060 436.639587,294.250519 424.807190,288.221680 
	C421.396698,286.483948 419.068848,282.621246 416.121582,279.416382 
	C416.019653,270.365753 416.040771,261.631561 416.447388,252.492050 
	C433.350067,264.806122 460.068695,265.914490 467.476105,260.850861 
	C464.776306,260.132355 462.664978,259.506195 460.523407,259.010803 
	C444.932983,255.404144 429.760590,250.711823 416.097961,242.057495 
	C414.500793,239.944458 412.903656,237.831406 411.404663,235.181061 
	C410.332123,228.521683 409.161377,222.399597 408.020447,216.433334 
	C396.204285,215.925125 387.879608,208.411575 387.754517,198.920807 
	C387.694794,194.390686 390.285461,192.227539 394.092529,191.150162 
	C397.800171,190.100937 400.647064,191.419968 402.102570,195.107162 
	C403.612213,198.931320 405.009277,202.799927 406.585449,206.994873 
	C408.080017,206.512955 409.418060,206.081497 410.708954,205.665237 
	C409.750244,200.105484 408.657776,194.919617 408.007935,189.678864 
	C407.354370,184.408249 407.789703,178.932907 406.604340,173.811996 
	C403.867096,161.986755 410.254150,152.143921 424.174286,149.891815 
	C438.102478,147.638428 452.006195,145.234161 465.924896,142.921600 
	C474.373291,141.517914 482.829773,140.162720 491.416229,138.763977 
	C498.423065,160.867630 500.591492,182.936523 500.987762,205.264175 
	C499.607544,218.553879 500.129456,232.199875 493.905457,244.595688 
	C492.277954,247.837021 490.361450,250.949799 488.381989,253.994415 
	C484.397705,260.122742 477.520813,259.462372 471.562683,260.920105 
	C470.623657,261.149841 469.637482,261.186890 467.984863,261.403107 
	C467.984863,267.077454 467.984863,272.672882 468.010620,278.754700 
z"/>
<path fill="#B43939" opacity="1.000000" stroke="none" 
	d="
M501.282654,205.051697 
	C500.591492,182.936523 498.423065,160.867630 491.416229,138.763977 
	C482.829773,140.162720 474.373291,141.517914 465.924896,142.921600 
	C452.006195,145.234161 438.102478,147.638428 424.174286,149.891815 
	C410.254150,152.143921 403.867096,161.986755 406.604340,173.811996 
	C407.789703,178.932907 407.354370,184.408249 408.007935,189.678864 
	C408.657776,194.919617 409.750244,200.105484 410.708954,205.665237 
	C409.418060,206.081497 408.080017,206.512955 406.585449,206.994873 
	C405.009277,202.799927 403.612213,198.931320 402.102570,195.107162 
	C400.647064,191.419968 397.800171,190.100937 394.092529,191.150162 
	C390.285461,192.227539 387.694794,194.390686 387.754517,198.920807 
	C387.879608,208.411575 396.204285,215.925125 408.020447,216.433334 
	C409.161377,222.399597 410.332123,228.521683 411.254822,234.891876 
	C399.681458,225.027039 390.304779,213.407959 384.689301,199.198166 
	C380.659821,189.001694 377.025391,178.625900 373.737823,168.165695 
	C370.142822,156.727371 369.569824,145.262863 376.943146,133.668152 
	C372.739716,132.313553 369.239624,131.185608 364.981262,129.813293 
	C367.549072,128.208359 370.150299,126.582520 373.087524,124.746674 
	C372.451263,119.547905 373.255981,114.548790 379.994781,112.207512 
	C379.273590,116.815140 378.265198,121.296585 381.577820,124.323586 
	C387.017303,118.050163 391.857147,111.453735 397.729309,105.960869 
	C404.579834,99.552734 412.860046,96.502357 422.775238,97.005783 
	C437.895996,97.773521 453.161774,97.940315 467.934357,93.791656 
	C471.931671,92.669060 475.426453,89.757019 480.655884,86.822296 
	C485.143036,88.371292 490.929352,91.224739 491.055206,99.468597 
	C499.482910,98.147331 503.029877,94.667145 505.371979,85.991173 
	C507.267853,89.283997 510.091614,92.368622 510.885956,95.908623 
	C513.285461,106.601913 512.046326,117.081200 506.898712,126.946533 
	C506.313538,128.067932 505.642700,129.391037 505.722504,130.572601 
	C506.203613,137.696167 506.802368,144.814957 507.529755,151.918137 
	C509.034302,166.610825 508.491058,181.197754 505.176819,195.602066 
	C504.443695,198.788467 502.801300,201.765671 501.282654,205.051697 
z"/>
<path fill="#EB907F" opacity="1.000000" stroke="none" 
	d="
M416.062622,242.504456 
	C429.760590,250.711823 444.932983,255.404144 460.523407,259.010803 
	C462.664978,259.506195 464.776306,260.132355 467.476105,260.850861 
	C460.068695,265.914490 433.350067,264.806122 416.501404,252.023834 
	C416.122314,248.957764 416.074799,245.954605 416.062622,242.504456 
z"/>
<path fill="#ECD298" opacity="1.000000" stroke="none" 
	d="
M880.797729,580.739746 
	C880.198242,587.653076 879.528320,594.561096 879.015076,601.480835 
	C878.170166,612.872314 875.503174,623.633240 869.350464,633.471069 
	C864.179993,641.738464 856.187744,642.365723 847.007935,642.168945 
	C843.334534,641.445251 840.296021,641.254272 837.543213,640.266602 
	C823.621521,635.272644 809.774109,630.071533 795.900635,624.942993 
	C794.363037,622.564026 792.825439,620.184998 791.125610,617.087402 
	C789.982117,611.651489 788.807007,606.963379 788.090576,602.206238 
	C787.643921,599.240601 786.785217,597.987122 783.409241,598.041565 
	C774.821777,598.180176 765.665771,587.982544 767.177612,579.564087 
	C767.615723,577.124268 770.607483,574.450317 773.089294,573.250610 
	C776.005859,571.840942 779.455994,572.568542 780.944031,576.292847 
	C782.419189,579.985168 783.670959,583.766541 785.057739,587.494995 
	C785.211365,587.907959 785.608276,588.230469 786.041077,588.785767 
	C787.400940,588.273743 788.709839,587.780945 788.938782,587.694702 
	C787.834106,574.740906 786.545471,562.534790 785.828979,550.295227 
	C785.270081,540.746399 792.436951,532.438354 801.960693,532.322998 
	C825.307373,532.040161 848.436829,530.166382 871.383911,524.912231 
	C871.915771,525.970886 872.593445,526.797668 872.751953,527.714233 
	C874.901672,540.147034 877.065063,552.578735 879.033752,565.040894 
	C879.854614,570.237061 880.223389,575.504639 880.797729,580.739746 
z"/>
<path fill="#A9832E" opacity="1.000000" stroke="none" 
	d="
M880.852539,580.335815 
	C880.223389,575.504639 879.854614,570.237061 879.033752,565.040894 
	C877.065063,552.578735 874.901672,540.147034 872.751953,527.714233 
	C872.593445,526.797668 871.915771,525.970886 871.383911,524.912231 
	C848.436829,530.166382 825.307373,532.040161 801.960693,532.322998 
	C792.436951,532.438354 785.270081,540.746399 785.828979,550.295227 
	C786.545471,562.534790 787.834106,574.740906 788.938782,587.694702 
	C788.709839,587.780945 787.400940,588.273743 786.041077,588.785767 
	C785.608276,588.230469 785.211365,587.907959 785.057739,587.494995 
	C783.670959,583.766541 782.419189,579.985168 780.944031,576.292847 
	C779.455994,572.568542 776.005859,571.840942 773.089294,573.250610 
	C770.607483,574.450317 767.615723,577.124268 767.177612,579.564087 
	C765.665771,587.982544 774.821777,598.180176 783.409241,598.041565 
	C786.785217,597.987122 787.643921,599.240601 788.090576,602.206238 
	C788.807007,606.963379 789.982117,611.651489 790.986694,616.792114 
	C783.947266,609.131409 775.502319,601.866821 770.119751,592.786926 
	C760.000793,575.717346 753.057922,557.057739 750.675415,537.146179 
	C749.955200,531.127014 750.530701,524.835876 751.348267,518.782104 
	C752.185974,512.579773 755.940002,507.881866 761.194519,504.362579 
	C762.383911,503.565948 763.755676,502.012512 763.826355,500.739868 
	C764.329773,491.672577 769.601868,485.691528 776.463074,480.831085 
	C788.900269,472.020569 803.337280,468.365601 818.058594,466.548492 
	C841.439392,463.662415 863.555359,467.692535 882.823242,482.200378 
	C887.021545,485.361511 890.840881,489.290009 894.025513,493.480103 
	C901.293762,503.043030 899.626770,511.956116 889.001648,517.541199 
	C883.693604,520.331360 882.366333,523.395386 882.494568,529.103210 
	C882.815796,543.404541 882.292053,557.726990 881.982117,572.038269 
	C881.924988,574.675964 881.280640,577.301025 880.852539,580.335815 
z"/>
<path fill="#ECD298" opacity="1.000000" stroke="none" 
	d="
M847.995605,661.985657 
	C846.902954,669.446716 844.104614,672.125305 833.164978,673.614807 
	C823.756226,674.895813 814.007935,675.263855 805.301697,670.727417 
	C801.462036,668.726746 798.719238,664.620972 795.239197,661.234314 
	C795.122925,652.203308 795.245911,643.408936 795.945435,634.422974 
	C801.793213,636.898621 806.913757,639.936523 812.367432,642.155579 
	C823.524292,646.695312 835.307983,645.150269 846.923462,644.977051 
	C846.959656,650.069458 846.995911,655.161865 847.189453,660.900513 
	C847.549072,661.757324 847.785522,661.917297 848.056213,662.026672 
	C848.056213,662.026672 847.994080,662.017090 847.995605,661.985657 
z"/>
<path fill="#E9CA88" opacity="1.000000" stroke="none" 
	d="
M846.951782,644.608093 
	C835.307983,645.150269 823.524292,646.695312 812.367432,642.155579 
	C806.913757,639.936523 801.793213,636.898621 796.192139,634.086426 
	C795.871399,631.245850 795.880371,628.550049 795.895020,625.398682 
	C809.774109,630.071533 823.621521,635.272644 837.543213,640.266602 
	C840.296021,641.254272 843.334534,641.445251 846.666260,642.012634 
	C847.054199,642.760803 847.017151,643.500000 846.951782,644.608093 
z"/>
<path fill="#DCAE3C" opacity="1.000000" stroke="none" 
	d="
M847.937866,661.838257 
	C847.785522,661.917297 847.549072,661.757324 847.212952,661.380371 
	C847.398071,661.236389 847.644897,661.381653 847.937866,661.838257 
z"/>
<path fill="#597D39" opacity="1.000000" stroke="none" 
	d="
M420.957764,657.873779 
	C415.512848,660.324463 410.223694,663.243103 404.587402,665.118469 
	C395.632996,668.097900 386.246918,664.534180 380.910919,656.759705 
	C374.889099,647.986023 372.768860,637.797485 371.392944,627.596008 
	C366.347229,590.185608 367.577515,552.867249 374.511139,515.789307 
	C379.614929,488.496552 397.439392,475.079193 424.274017,470.285095 
	C461.311829,463.668091 497.183868,483.885620 511.435333,518.682800 
	C513.906250,524.715942 515.230408,531.520813 515.613098,538.055359 
	C517.378174,568.190735 517.233887,598.359375 511.680542,628.118896 
	C510.046326,636.876282 506.475403,645.842407 501.623016,653.301941 
	C493.340088,666.035217 480.368164,666.619446 466.427673,662.404053 
	C465.945190,654.594849 465.873413,647.313538 465.864624,639.568359 
	C465.854614,634.722900 465.781616,630.341248 465.812256,625.613159 
	C470.015869,617.292786 474.078827,609.299500 478.255096,601.365845 
	C478.893402,600.153259 479.859772,598.626282 481.006439,598.245911 
	C489.530609,595.419006 492.463593,588.637695 493.529083,580.691528 
	C494.205017,575.650757 490.734802,572.031250 485.603424,571.946533 
	C483.822388,571.917053 482.034241,572.320557 480.249329,572.526367 
	C480.551025,572.123535 480.852722,571.720703 481.154419,571.317871 
	C476.326385,567.468994 471.601715,563.479309 466.628571,559.828064 
	C463.966034,557.873169 460.871857,556.507690 457.978790,554.865112 
	C444.846710,547.409363 434.755463,537.166992 429.134888,522.958313 
	C427.516937,518.868103 424.805664,517.199585 420.444427,516.877502 
	C397.235229,515.163330 381.614319,533.200195 379.504059,552.401062 
	C376.689606,578.009216 379.826935,603.217834 390.999359,626.929993 
	C396.955383,639.570862 406.133209,647.402344 420.874390,647.450073 
	C420.988403,648.552673 421.059235,649.288269 421.069763,650.457886 
	C420.992218,653.219299 420.975006,655.546570 420.957764,657.873779 
z"/>
<path fill="#B9D199" opacity="1.000000" stroke="none" 
	d="
M465.801636,640.032104 
	C465.873413,647.313538 465.945190,654.594849 466.033661,662.328125 
	C465.402649,666.475708 468.707428,666.423523 470.877167,667.957581 
	C471.391754,672.711243 468.447327,675.148987 465.031738,676.481506 
	C450.976074,681.964478 436.795502,681.737854 422.999481,675.717041 
	C420.245575,674.515259 418.455139,671.105713 416.047424,668.428162 
	C421.929352,667.382202 421.054230,662.859314 420.962280,658.318970 
	C420.975006,655.546570 420.992218,653.219299 421.521240,650.451965 
	C435.888184,650.167358 449.052887,647.244446 461.553192,641.251343 
	C462.863068,640.623291 464.380493,640.428101 465.801636,640.032104 
z"/>
<path fill="#5085A0" opacity="1.000000" stroke="none" 
	d="
M899.959473,278.542969 
	C892.033203,276.868164 884.131653,274.726013 876.232239,272.576385 
	C871.804504,271.371490 867.380127,270.154144 862.294739,268.659058 
	C857.930298,267.645416 856.837769,265.463409 857.003601,261.704834 
	C857.307495,254.817505 857.024048,247.904266 857.031860,240.540253 
	C857.025391,236.049362 856.972473,232.020035 856.999756,227.646515 
	C861.170654,219.322693 865.206848,211.314117 869.405701,203.391785 
	C870.111694,202.059799 871.321411,200.511002 872.637878,200.065430 
	C880.817566,197.296890 883.456848,190.516113 884.612488,183.114075 
	C884.972107,180.810654 883.443115,176.764679 881.664062,175.949677 
	C879.546509,174.979630 875.823730,175.958160 873.544922,177.332993 
	C871.267700,178.706909 869.915039,181.613129 867.922424,184.145828 
	C867.922424,178.142639 867.936768,172.480820 867.917542,166.819092 
	C867.904114,162.877686 866.480164,160.966248 861.955322,161.014145 
	C854.485046,161.093216 847.008301,160.272095 839.529297,159.942535 
	C836.275635,159.799179 834.721558,158.540817 834.894836,155.046310 
	C835.052612,151.864868 834.669189,148.656616 834.524414,145.460175 
	C832.660461,147.897736 831.621094,150.355972 831.280334,152.907516 
	C830.734497,156.993942 828.940552,158.669922 824.678955,158.064926 
	C809.881104,155.964310 795.041626,154.155151 780.250122,152.012909 
	C774.786987,151.221664 772.195740,152.544785 771.969543,158.091507 
	C771.631775,166.374161 771.635620,174.691467 771.958069,182.975983 
	C772.615173,199.859253 777.257812,215.723480 784.835510,230.789581 
	C790.631836,242.313797 799.700928,248.401474 812.830444,248.465729 
	C812.969055,249.558899 813.052856,250.288940 813.076721,251.481354 
	C812.994812,255.103683 812.713318,258.288727 813.015625,261.417328 
	C813.405640,265.453064 812.293762,268.185974 808.063538,269.075043 
	C797.814148,272.736511 787.324402,275.855743 777.401978,280.254669 
	C771.042480,283.073975 765.519714,287.780487 759.337891,291.804321 
	C758.994446,254.648834 758.847778,217.329788 758.928528,180.011246 
	C758.952576,168.897903 758.882629,157.701889 760.146606,146.691956 
	C762.339966,127.586784 770.251038,110.761528 784.372620,97.533737 
	C798.071472,84.701988 815.105164,81.572777 833.178345,83.485786 
	C840.913940,84.304581 848.540405,86.187309 856.203064,87.656609 
	C876.389893,91.527458 887.829102,104.736656 894.187744,123.342186 
	C898.483154,135.910583 900.157654,148.872421 900.133301,162.110489 
	C900.062195,200.764465 900.031616,239.418518 899.959473,278.542969 
z"/>
<path fill="#B7D1E4" opacity="1.000000" stroke="none" 
	d="
M808.026978,269.482941 
	C812.293762,268.185974 813.405640,265.453064 813.015625,261.417328 
	C812.713318,258.288727 812.994812,255.103683 813.529175,251.475830 
	C817.999817,250.847412 821.971558,250.841125 825.913757,250.496872 
	C836.929932,249.534943 847.017883,245.444824 856.985474,241.001831 
	C857.024048,247.904266 857.307495,254.817505 857.003601,261.704834 
	C856.837769,265.463409 857.930298,267.645416 861.899414,268.643005 
	C860.212830,287.009399 842.900024,300.523773 826.480469,302.570770 
	C825.451294,302.699097 824.156982,302.185577 823.249878,301.577179 
	C814.504944,295.711609 808.129028,288.168915 807.123169,277.234161 
	C806.902344,274.833282 807.675171,272.341034 808.026978,269.482941 
z"/>
<path fill="#B9D199" opacity="1.000000" stroke="none" 
	d="
M420.831238,647.082947 
	C406.133209,647.402344 396.955383,639.570862 390.999359,626.929993 
	C379.826935,603.217834 376.689606,578.009216 379.504059,552.401062 
	C381.614319,533.200195 397.235229,515.163330 420.444427,516.877502 
	C424.805664,517.199585 427.516937,518.868103 429.134888,522.958313 
	C434.755463,537.166992 444.846710,547.409363 457.978790,554.865112 
	C460.871857,556.507690 463.966034,557.873169 466.628571,559.828064 
	C471.601715,563.479309 476.326385,567.468994 481.154419,571.317871 
	C480.852722,571.720703 480.551025,572.123535 480.249329,572.526367 
	C482.034241,572.320557 483.822388,571.917053 485.603424,571.946533 
	C490.734802,572.031250 494.205017,575.650757 493.529083,580.691528 
	C492.463593,588.637695 489.530609,595.419006 481.006439,598.245911 
	C479.859772,598.626282 478.893402,600.153259 478.255096,601.365845 
	C474.078827,609.299500 470.015869,617.292786 465.494598,625.678101 
	C463.454254,627.487366 461.876038,628.935974 460.209717,630.274902 
	C448.657928,639.557129 436.296722,646.962036 420.831238,647.082947 
z"/>
<path fill="#ACC988" opacity="1.000000" stroke="none" 
	d="
M420.874390,647.450073 
	C436.296722,646.962036 448.657928,639.557129 460.209717,630.274902 
	C461.876038,628.935974 463.454254,627.487366 465.390930,626.024597 
	C465.781616,630.341248 465.854614,634.722900 465.864624,639.568298 
	C464.380493,640.428101 462.863068,640.623291 461.553192,641.251343 
	C449.052887,647.244446 435.888184,650.167358 421.581543,650.017822 
	C421.059235,649.288269 420.988403,648.552673 420.874390,647.450073 
z"/>
<path fill="#B7D1E4" opacity="1.000000" stroke="none" 
	d="
M812.775757,248.102615 
	C799.700928,248.401474 790.631836,242.313797 784.835510,230.789581 
	C777.257812,215.723480 772.615173,199.859253 771.958069,182.975983 
	C771.635620,174.691467 771.631775,166.374161 771.969543,158.091507 
	C772.195740,152.544785 774.786987,151.221664 780.250122,152.012909 
	C795.041626,154.155151 809.881104,155.964310 824.678955,158.064926 
	C828.940552,158.669922 830.734497,156.993942 831.280334,152.907516 
	C831.621094,150.355972 832.660461,147.897736 834.524414,145.460175 
	C834.669189,148.656616 835.052612,151.864868 834.894836,155.046310 
	C834.721558,158.540817 836.275635,159.799179 839.529297,159.942535 
	C847.008301,160.272095 854.485046,161.093216 861.955322,161.014145 
	C866.480164,160.966248 867.904114,162.877686 867.917542,166.819092 
	C867.936768,172.480820 867.922424,178.142639 867.922424,184.145828 
	C869.915039,181.613129 871.267700,178.706909 873.544922,177.332993 
	C875.823730,175.958160 879.546509,174.979630 881.664062,175.949677 
	C883.443115,176.764679 884.972107,180.810654 884.612488,183.114075 
	C883.456848,190.516113 880.817566,197.296890 872.637878,200.065430 
	C871.321411,200.511002 870.111694,202.059799 869.405701,203.391785 
	C865.206848,211.314117 861.170654,219.322693 856.662659,227.693893 
	C855.080322,228.973221 853.887268,229.826920 852.754211,230.753922 
	C841.066528,240.316940 828.551941,247.964859 812.775757,248.102615 
z"/>
<path fill="#AACAE0" opacity="1.000000" stroke="none" 
	d="
M812.830444,248.465729 
	C828.551941,247.964859 841.066528,240.316940 852.754211,230.753922 
	C853.887268,229.826920 855.080322,228.973221 856.582520,228.038101 
	C856.972473,232.020035 857.025391,236.049362 857.031860,240.540253 
	C847.017883,245.444824 836.929932,249.534943 825.913757,250.496872 
	C821.971558,250.841125 817.999817,250.847412 813.589111,251.013474 
	C813.052856,250.288940 812.969055,249.558899 812.830444,248.465729 
z"/>
</svg>