<?xml version="1.0" standalone="no"?>
<!DOCTYPE svg PUBLIC "-//W3C//DTD SVG 20010904//EN"
 "http://www.w3.org/TR/2001/REC-SVG-20010904/DTD/svg10.dtd">
<svg version="1.0" xmlns="http://www.w3.org/2000/svg"
 width="1024.000000pt" height="1024.000000pt" viewBox="0 0 1024.000000 1024.000000"
 preserveAspectRatio="xMidYMid meet">

<g transform="translate(0.000000,1024.000000) scale(0.100000,-0.100000)"
fill="#000000" stroke="none">
<path d="M2023 10225 c-156 -34 -265 -143 -303 -304 -18 -76 -8 -211 21 -285
43 -111 158 -207 280 -235 24 -6 155 -11 292 -11 l247 0 0 -782 c0 -462 4
-828 10 -893 33 -350 165 -658 380 -890 26 -27 136 -167 246 -310 109 -143
227 -291 262 -330 255 -284 382 -638 382 -1065 0 -428 -127 -781 -382 -1066
-55 -61 -381 -477 -550 -702 -188 -250 -309 -554 -338 -851 -6 -60 -10 -424
-10 -877 l0 -774 -247 0 c-137 0 -268 -5 -292 -11 -122 -28 -237 -124 -280
-235 -29 -74 -39 -209 -21 -285 38 -163 147 -270 307 -304 101 -22 6084 -22
6184 -1 160 34 262 132 304 291 43 166 -1 333 -117 440 -100 93 -126 99 -445
103 l-273 3 0 777 c0 444 -5 826 -10 892 -31 352 -163 661 -380 895 -57 61
-489 619 -583 753 -130 185 -231 417 -277 637 -27 129 -37 383 -21 520 41 346
162 625 373 861 55 61 381 477 550 702 189 251 305 546 338 854 5 52 10 437
10 870 l0 777 273 3 c319 4 345 10 445 103 89 82 131 183 132 312 1 220 -118
376 -317 418 -99 21 -6094 21 -6190 0z m5232 -1645 c-1 -792 -1 -807 -23 -906
-12 -56 -33 -137 -48 -180 -33 -99 -139 -319 -196 -404 -43 -64 -433 -530
-556 -665 -228 -249 -392 -637 -442 -1045 -13 -110 -13 -412 0 -520 46 -370
189 -725 417 -1040 38 -52 181 -227 318 -388 138 -161 273 -322 301 -357 103
-127 174 -302 211 -515 15 -83 17 -197 17 -900 l1 -805 -2135 0 -2135 0 -3
710 c-3 751 3 916 39 1062 41 165 133 374 232 523 41 63 423 521 555 665 230
253 392 637 442 1045 17 145 12 428 -10 583 -52 350 -199 698 -423 1002 -29
38 -159 187 -291 330 -250 272 -277 308 -362 470 -104 197 -157 374 -174 572
-11 131 -14 1556 -3 1566 3 4 965 6 2137 5 l2131 -3 0 -805z"/>
<path d="M3420 8121 c0 -356 7 -416 62 -548 48 -117 92 -173 363 -468 321
-350 424 -494 571 -800 173 -362 251 -670 278 -1098 l14 -220 36 -72 c43 -86
93 -135 185 -179 63 -30 72 -31 191 -31 119 0 128 1 191 31 92 44 142 93 185
179 l36 73 14 228 c8 125 23 282 34 348 70 417 244 812 507 1151 39 50 190
232 337 405 234 275 273 327 311 405 77 158 78 166 82 564 4 339 4 353 -14
347 -80 -32 -334 -114 -449 -146 -403 -110 -793 -161 -1234 -161 -358 0 -625
27 -960 97 -223 46 -542 139 -722 209 -17 7 -18 -12 -18 -314z"/>
<path d="M4920 2975 c-8 -2 -55 -9 -105 -15 -331 -44 -673 -182 -966 -390
-191 -135 -307 -270 -368 -430 -55 -141 -61 -198 -61 -545 l0 -315 1700 0
1700 0 0 305 c0 240 -3 322 -16 382 -34 168 -98 289 -209 397 -429 418 -916
619 -1493 615 -92 -1 -174 -3 -182 -4z"/>
</g>
</svg>
